<svg width="24" height="20" viewBox="0 0 24 20" fill="none" xmlns="http://www.w3.org/2000/svg">
<path d="M9.3105 0.275976C9.71 -0.104524 10.3435 -0.089524 10.724 0.310476C11.105 0.710476 11.089 1.34348 10.6895 1.72448L3.0185 8.99997H23C23.552 8.99997 24 9.44797 24 9.99997C24 10.552 23.552 11 23 11H3.0505L10.6895 18.276C11.0895 18.657 11.105 19.29 10.724 19.69C10.5275 19.896 10.264 20 10 20C9.752 20 9.504 19.9085 9.3105 19.724L0.586 11.414C0.208 11.0365 0 10.5345 0 9.99997C0 9.46547 0.208 8.96347 0.6035 8.56897L9.3105 0.275976Z" fill="#555555"/>
</svg>
