<svg width="24" height="20" viewBox="0 0 24 20" fill="none" xmlns="http://www.w3.org/2000/svg">
<path d="M14.6895 0.275976C14.29 -0.104524 13.6565 -0.089524 13.276 0.310476C12.895 0.710476 12.911 1.34348 13.3105 1.72448L20.9815 8.99997H1C0.448 8.99997 0 9.44797 0 9.99997C0 10.552 0.448 11 1 11H20.9495L13.3105 18.276C12.9105 18.657 12.895 19.29 13.276 19.69C13.4725 19.896 13.736 20 14 20C14.248 20 14.496 19.9085 14.6895 19.724L23.414 11.414C23.792 11.0365 24 10.5345 24 9.99997C24 9.46547 23.792 8.96347 23.3965 8.56897L14.6895 0.275976Z" fill="#555555"/>
</svg>
