<svg width="12" height="10" viewBox="0 0 12 10" fill="none" xmlns="http://www.w3.org/2000/svg">
<path d="M7.34475 0.13811C7.145 -0.05214 6.82825 -0.0446399 6.638 0.15536C6.4475 0.35536 6.4555 0.67186 6.65525 0.86236L10.4908 4.50011H0.5C0.224 4.50011 0 4.72411 0 5.00011C0 5.27611 0.224 5.50011 0.5 5.50011H10.4747L6.65525 9.1381C6.45525 9.3286 6.4475 9.64511 6.638 9.84511C6.73625 9.9481 6.868 10.0001 7 10.0001C7.124 10.0001 7.248 9.95436 7.34475 9.86211L11.707 5.70711C11.896 5.51836 12 5.26736 12 5.00011C12 4.73286 11.896 4.48186 11.6982 4.28461L7.34475 0.13811Z" fill="#0070BA"/>
</svg>
