<svg width="18" height="17" viewBox="0 0 18 17" fill="none" xmlns="http://www.w3.org/2000/svg">
<path d="M16.1339 2.11442H15.0039V1.21887C15.0039 0.960992 14.7929 0.75 14.535 0.75C14.2771 0.75 14.0661 0.960992 14.0661 1.21887V2.11442H9.47121V1.21887C9.47121 0.960992 9.26021 0.75 9.00233 0.75C8.74446 0.75 8.53346 0.960992 8.53346 1.21887V2.11442H3.89163V1.21887C3.89163 0.960992 3.68064 0.75 3.42276 0.75C3.16488 0.75 2.95389 0.960992 2.95389 1.21887V2.11442H1.8708C0.83928 2.11442 0 2.98183 0 4.01335V14.9146C0 15.9508 0.834592 16.7901 1.8708 16.7901H16.1292C17.1654 16.7901 18 15.9508 18 14.9193V4.01335C18.0047 2.98183 17.1654 2.11442 16.1339 2.11442ZM17.0669 14.9146C17.0669 15.4304 16.6543 15.8477 16.1386 15.8524H16.1339H1.8708C1.35504 15.8524 0.937743 15.4351 0.937743 14.9193V14.9146V4.01335C0.937743 3.4929 1.35504 3.05216 1.8708 3.05216H2.95389V3.73202C2.95389 3.9899 3.16488 4.20089 3.42276 4.20089C3.68064 4.20089 3.89163 3.9899 3.89163 3.73202V3.05216H8.53346V3.73202C8.53346 3.9899 8.74446 4.20089 9.00233 4.20089C9.26021 4.20089 9.47121 3.9899 9.47121 3.73202V3.05216H14.0661V3.73202C14.0661 3.9899 14.2771 4.20089 14.535 4.20089C14.7929 4.20089 15.0039 3.9899 15.0039 3.73202V3.05216H16.1339C16.6543 3.05216 17.0669 3.49759 17.0669 4.01335V14.9146Z" fill="#999999"/>
<path d="M7.76913 6.09961H6.94861C6.69073 6.09961 6.47974 6.3106 6.47974 6.56848C6.47974 6.82636 6.69073 7.03735 6.94861 7.03735H7.76913C8.02701 7.03735 8.238 6.82636 8.238 6.56848C8.238 6.3106 8.02701 6.09961 7.76913 6.09961Z" fill="#999999"/>
<path d="M11.0326 6.09961H10.212C9.95416 6.09961 9.74316 6.3106 9.74316 6.56848C9.74316 6.82636 9.95416 7.03735 10.212 7.03735H11.0326C11.2904 7.03735 11.5014 6.82636 11.5014 6.56848C11.5014 6.3106 11.2951 6.09961 11.0326 6.09961Z" fill="#999999"/>
<path d="M14.3241 6.09961H13.5035C13.2457 6.09961 13.0347 6.3106 13.0347 6.56848C13.0347 6.82636 13.2457 7.03735 13.5035 7.03735H14.3241C14.5819 7.03735 14.7929 6.82636 14.7929 6.56848C14.7929 6.3106 14.5819 6.09961 14.3241 6.09961Z" fill="#999999"/>
<path d="M7.76913 9.33496H6.94861C6.69073 9.33496 6.47974 9.54595 6.47974 9.80383C6.47974 10.0617 6.69073 10.2727 6.94861 10.2727H7.76913C8.02701 10.2727 8.238 10.0617 8.238 9.80383C8.238 9.54595 8.02701 9.33496 7.76913 9.33496Z" fill="#999999"/>
<path d="M4.48256 9.33496H3.65735C3.39947 9.33496 3.18848 9.54595 3.18848 9.80383C3.18848 10.0617 3.39947 10.2727 3.65735 10.2727H4.47787C4.73575 10.2727 4.94674 10.0617 4.94674 9.80383C4.94674 9.54595 4.74044 9.33496 4.48256 9.33496Z" fill="#999999"/>
<path d="M11.0326 9.33496H10.212C9.95416 9.33496 9.74316 9.54595 9.74316 9.80383C9.74316 10.0617 9.95416 10.2727 10.212 10.2727H11.0326C11.2904 10.2727 11.5014 10.0617 11.5014 9.80383C11.5014 9.54595 11.2951 9.33496 11.0326 9.33496Z" fill="#999999"/>
<path d="M14.3241 9.33496H13.5035C13.2457 9.33496 13.0347 9.54595 13.0347 9.80383C13.0347 10.0617 13.2457 10.2727 13.5035 10.2727H14.3241C14.5819 10.2727 14.7929 10.0617 14.7929 9.80383C14.7929 9.54595 14.5819 9.33496 14.3241 9.33496Z" fill="#999999"/>
<path d="M7.76913 12.5234H6.94861C6.69073 12.5234 6.47974 12.7344 6.47974 12.9923C6.47974 13.2502 6.69073 13.4612 6.94861 13.4612H7.76913C8.02701 13.4612 8.238 13.2502 8.238 12.9923C8.238 12.7344 8.02701 12.5234 7.76913 12.5234Z" fill="#999999"/>
<path d="M4.48256 12.5234H3.65735C3.39947 12.5234 3.18848 12.7344 3.18848 12.9923C3.18848 13.2502 3.39947 13.4612 3.65735 13.4612H4.47787C4.73575 13.4612 4.94674 13.2502 4.94674 12.9923C4.94674 12.7344 4.74044 12.5234 4.48256 12.5234Z" fill="#999999"/>
<path d="M11.0326 12.5234H10.212C9.95416 12.5234 9.74316 12.7344 9.74316 12.9923C9.74316 13.2502 9.95416 13.4612 10.212 13.4612H11.0326C11.2904 13.4612 11.5014 13.2502 11.5014 12.9923C11.5014 12.7344 11.2951 12.5234 11.0326 12.5234Z" fill="#999999"/>
</svg>
