<svg width="24" height="14" viewBox="0 0 24 14" fill="none" xmlns="http://www.w3.org/2000/svg">
<path d="M21.8667 0H5.33339C4.16006 0 3.20006 0.96 3.20006 2.13333V2.93333C3.20006 3.22667 3.44006 3.46667 3.73339 3.46667C4.02673 3.46667 4.26673 3.22667 4.26673 2.93333V2.13333C4.26673 2.02667 4.29339 1.92 4.32006 1.81333L10.2934 6.93333L4.32006 12.0533C4.29339 11.9467 4.26673 11.84 4.26673 11.7333V10.9333C4.26673 10.64 4.02673 10.4 3.73339 10.4C3.44006 10.4 3.20006 10.64 3.20006 10.9333V11.7333C3.20006 12.9067 4.16006 13.8667 5.33339 13.8667H21.8667C23.0401 13.8667 24.0001 12.9067 24.0001 11.7333V2.13333C24.0001 0.96 23.0401 0 21.8667 0ZM5.12006 1.09333C5.17339 1.06667 5.25339 1.06667 5.33339 1.06667H21.8667C21.9467 1.06667 22.0267 1.06667 22.0801 1.09333L13.9467 8.05333C13.7334 8.21333 13.4667 8.21333 13.2534 8.05333L5.12006 1.09333ZM21.8667 12.8H5.33339C5.25339 12.8 5.17339 12.8 5.12006 12.7733L11.1201 7.62667L12.5601 8.88C12.8534 9.14667 13.2267 9.28 13.6001 9.28C13.9734 9.28 14.3467 9.14667 14.6401 8.88L16.0801 7.62667L22.0801 12.7733C22.0267 12.8 21.9467 12.8 21.8667 12.8ZM22.9334 11.7333C22.9334 11.84 22.9067 11.9467 22.8801 12.0533L16.9067 6.93333L22.8801 1.81333C22.9067 1.92 22.9334 2.02667 22.9334 2.13333V11.7333ZM1.60006 5.6C1.60006 5.30667 1.84006 5.06667 2.13339 5.06667H5.33339C5.62673 5.06667 5.86673 5.30667 5.86673 5.6C5.86673 5.89333 5.62673 6.13333 5.33339 6.13333H2.13339C1.84006 6.13333 1.60006 5.89333 1.60006 5.6ZM5.33339 8.8H0.533394C0.240061 8.8 6.10352e-05 8.56 6.10352e-05 8.26667C6.10352e-05 7.97333 0.240061 7.73333 0.533394 7.73333H5.33339C5.62673 7.73333 5.86673 7.97333 5.86673 8.26667C5.86673 8.56 5.62673 8.8 5.33339 8.8Z" fill="#222222"/>
</svg>
