<svg width="36" height="50" viewBox="0 0 36 50" fill="none" xmlns="http://www.w3.org/2000/svg">
<path d="M0.03125 36.7188V49.2188H1.59375V36.7188C1.59375 32.1187 4.88125 28.2 9.41172 27.4008L11.1961 27.0859L11.3687 28.6453C11.6219 30.9172 12.9258 32.8937 14.875 34.0422V35.1562H11.75C11.318 35.1562 10.9688 35.5062 10.9688 35.9375V46.0938C10.9688 46.525 11.318 46.875 11.75 46.875H24.25C24.682 46.875 25.0312 46.525 25.0312 46.0938V35.9375C25.0312 35.5062 24.682 35.1562 24.25 35.1562H21.125V34.0422C23.075 32.8937 24.3781 30.9172 24.6312 28.6453L24.8039 27.0867L26.5883 27.4016C31.1187 28.2 34.4062 32.1187 34.4062 36.7188V49.2188H35.9688V36.7188C35.9688 31.3594 32.1383 26.793 26.8602 25.8625L22.7344 25.1344C24.6422 23.8695 26.0141 21.8648 26.4445 19.532H26.5938C28.3172 19.532 29.7188 18.1305 29.7188 16.407C29.7188 15.6219 29.418 14.9117 28.9375 14.3617V9.375C28.9375 7.03672 27.2172 5.09297 24.9758 4.74375C24.625 2.50234 22.682 0.78125 20.3438 0.78125H14.875C10.5672 0.78125 7.0625 4.28594 7.0625 8.59375V14.3609C6.58203 14.9102 6.28125 15.6203 6.28125 16.4062C6.28125 18.1297 7.68281 19.5312 9.40625 19.5312H9.55547C9.98672 21.8641 11.3578 23.8688 13.2656 25.1336L9.13984 25.8617C3.86172 26.793 0.03125 31.3594 0.03125 36.7188ZM23.4688 45.3125H12.5312V36.7188H23.4688V45.3125ZM16.4375 35.1562V33.5938H19.5625V35.1562H16.4375ZM23.0781 28.4719C22.907 30.0109 22.118 31.375 20.9227 32.2992C20.7797 32.1375 20.5766 32.0312 20.3438 32.0312H15.6562C15.4234 32.0312 15.2203 32.1375 15.0773 32.2992C13.882 31.375 13.093 30.0109 12.9219 28.4727L12.7383 26.8141L13.4039 26.6969C13.8305 28.8445 15.7281 30.4688 18 30.4688C20.2719 30.4688 22.1695 28.8445 22.5961 26.6961L23.2617 26.8133L23.0781 28.4719ZM14.8945 25.9727C15.8594 26.3484 16.9039 26.5625 18 26.5625C19.0961 26.5625 20.1406 26.3484 21.1055 25.9727C21.0047 27.6055 19.6578 28.9062 18 28.9062C16.3422 28.9062 14.9953 27.6055 14.8945 25.9727ZM26.5938 17.9688V14.8438C27.4555 14.8438 28.1562 15.5445 28.1562 16.4062C28.1562 17.268 27.4555 17.9688 26.5938 17.9688ZM14.875 2.34375H20.3438C22.0672 2.34375 23.4688 3.74531 23.4688 5.46875C23.4688 5.9 23.818 6.25 24.25 6.25C25.9734 6.25 27.375 7.65156 27.375 9.375V13.3922C27.1234 13.3266 26.8648 13.2812 26.5938 13.2812C26.5938 13.0492 26.4906 12.8297 26.3133 12.6813L21.6258 8.775C21.4141 8.59766 21.1234 8.54688 20.8648 8.63828C20.6055 8.72969 20.4133 8.95156 20.3594 9.22188C19.9789 11.1211 18.2977 12.5 16.3602 12.5H10.1875C9.75547 12.5 9.40625 12.85 9.40625 13.2812C9.13516 13.2812 8.87656 13.3266 8.625 13.3922V8.59375C8.625 5.14766 11.4289 2.34375 14.875 2.34375ZM7.84375 16.4062C7.84375 15.5445 8.54453 14.8438 9.40625 14.8438V17.9688C8.54453 17.9688 7.84375 17.268 7.84375 16.4062ZM10.9688 17.9688V14.0625H16.3602C18.6164 14.0625 20.6219 12.7109 21.5125 10.7148L25.0312 13.6469V17.9688C25.0312 21.8453 21.8773 25 18 25C14.1227 25 10.9688 21.8453 10.9688 17.9688Z" fill="#555555"/>
</svg>
