<svg width="32" height="19" viewBox="0 0 32 19" fill="none" xmlns="http://www.w3.org/2000/svg">
<path d="M29.1556 0.166748H7.11118C5.54674 0.166748 4.26674 1.44675 4.26674 3.01119V4.07786C4.26674 4.46897 4.58674 4.78897 4.97785 4.78897C5.36896 4.78897 5.68896 4.46897 5.68896 4.07786V3.01119C5.68896 2.86897 5.72451 2.72675 5.76007 2.58453L13.7245 9.41119L5.76007 16.2379C5.72451 16.0956 5.68896 15.9534 5.68896 15.8112V14.7445C5.68896 14.3534 5.36896 14.0334 4.97785 14.0334C4.58674 14.0334 4.26674 14.3534 4.26674 14.7445V15.8112C4.26674 17.3756 5.54674 18.6556 7.11118 18.6556H29.1556C30.7201 18.6556 32.0001 17.3756 32.0001 15.8112V3.01119C32.0001 1.44675 30.7201 0.166748 29.1556 0.166748ZM6.82674 1.62453C6.89785 1.58897 7.00451 1.58897 7.11118 1.58897H29.1556C29.2623 1.58897 29.369 1.58897 29.4401 1.62453L18.5956 10.9045C18.3112 11.1179 17.9556 11.1179 17.6712 10.9045L6.82674 1.62453ZM29.1556 17.2334H7.11118C7.00451 17.2334 6.89785 17.2334 6.82674 17.1979L14.8267 10.3356L16.7467 12.0067C17.1378 12.3623 17.6356 12.5401 18.1334 12.5401C18.6312 12.5401 19.129 12.3623 19.5201 12.0067L21.4401 10.3356L29.4401 17.1979C29.369 17.2334 29.2623 17.2334 29.1556 17.2334ZM30.5778 15.8112C30.5778 15.9534 30.5423 16.0956 30.5067 16.2379L22.5423 9.41119L30.5067 2.58453C30.5423 2.72675 30.5778 2.86897 30.5778 3.01119V15.8112ZM2.1334 7.63341C2.1334 7.2423 2.4534 6.9223 2.84451 6.9223H7.11118C7.50229 6.9223 7.82229 7.2423 7.82229 7.63341C7.82229 8.02453 7.50229 8.34453 7.11118 8.34453H2.84451C2.4534 8.34453 2.1334 8.02453 2.1334 7.63341ZM7.11118 11.9001H0.71118C0.320069 11.9001 6.86646e-05 11.5801 6.86646e-05 11.189C6.86646e-05 10.7979 0.320069 10.4779 0.71118 10.4779H7.11118C7.50229 10.4779 7.82229 10.7979 7.82229 11.189C7.82229 11.5801 7.50229 11.9001 7.11118 11.9001Z" fill="white"/>
</svg>
