<svg width="80" height="80" viewBox="0 0 80 80" fill="none" xmlns="http://www.w3.org/2000/svg">
<path d="M75.7011 45.0514C78.135 44.6583 80 42.5433 80 40C80 37.4567 78.135 35.3417 75.7011 34.9486C74.6719 27.6406 71.3708 20.7545 66.3086 15.3489L72.1898 9.46766C72.9725 9.95391 73.895 10.2356 74.8822 10.2356C77.7042 10.2356 80 7.93984 80 5.11781C80 2.29578 77.7042 0 74.8822 0C72.0602 0 69.7644 2.29578 69.7644 5.11781C69.7644 6.10516 70.0461 7.0275 70.5323 7.81016L64.6511 13.6914C59.2455 8.62922 52.3595 5.32812 45.0514 4.29891C44.6583 1.865 42.5433 0 40 0C37.4567 0 35.3417 1.865 34.9486 4.29891C27.6405 5.32812 20.7545 8.62922 15.3489 13.6916L9.46766 7.81031C9.95391 7.02766 10.2358 6.10516 10.2358 5.11797C10.2356 2.29578 7.93984 0 5.11781 0C2.29578 0 0 2.29578 0 5.11781C0 7.93984 2.29578 10.2356 5.11781 10.2356C6.10516 10.2356 7.0275 9.95391 7.81031 9.4675L13.6916 15.3488C8.62938 20.7544 5.32812 27.6405 4.29906 34.9484C1.865 35.3417 0 37.4567 0 40C0 42.5433 1.865 44.6583 4.29891 45.0514C5.32797 52.3594 8.62922 59.2455 13.6914 64.6511L7.81016 70.5323C7.02734 70.0461 6.105 69.7642 5.11766 69.7642C2.29578 69.7644 0 72.0603 0 74.8822C0 77.7041 2.29578 80 5.11781 80C7.93984 80 10.2356 77.7042 10.2356 74.8822C10.2356 73.8948 9.95391 72.9725 9.4675 72.1898L15.3488 66.3086C20.7544 71.3708 27.6405 74.672 34.9484 75.7011C35.3417 78.135 37.4567 80 40 80C42.5433 80 44.6583 78.135 45.0514 75.7011C52.3594 74.6719 59.2455 71.3708 64.6511 66.3086L70.5323 72.1898C70.0461 72.9727 69.7644 73.895 69.7644 74.8822C69.7644 77.7042 72.0602 80 74.8822 80C77.7042 80 80 77.7042 80 74.8822C80 72.0602 77.7042 69.7644 74.8822 69.7644C73.8948 69.7644 72.9725 70.0461 72.1898 70.5323L66.3086 64.6511C71.3708 59.2455 74.6719 52.3595 75.7011 45.0514ZM40 69.7644C37.7091 69.7644 35.765 71.2775 35.1144 73.3569C20.507 71.2261 8.77391 59.4928 6.64312 44.8856C8.7225 44.235 10.2356 42.2909 10.2356 40C10.2356 37.7091 8.7225 35.765 6.64312 35.1144C8.77391 20.5072 20.5072 8.77391 35.1144 6.64312C35.765 8.7225 37.7091 10.2356 40 10.2356C42.2909 10.2356 44.235 8.7225 44.8856 6.64312C59.4928 8.77375 71.2262 20.5072 73.3569 35.1144C71.2775 35.765 69.7644 37.7091 69.7644 40C69.7644 42.2909 71.2775 44.235 73.3569 44.8856C71.2262 59.4928 59.4928 71.2262 44.8856 73.3569C44.235 71.2775 42.2909 69.7644 40 69.7644ZM77.6562 40C77.6562 41.5295 76.4117 42.7741 74.8822 42.7741C73.3527 42.7741 72.1081 41.5295 72.1081 40C72.1081 38.4705 73.3527 37.2259 74.8822 37.2259C76.4117 37.2259 77.6562 38.4705 77.6562 40ZM74.8822 2.34375C76.4117 2.34375 77.6562 3.58828 77.6562 5.11781C77.6562 6.64734 76.4117 7.89187 74.8822 7.89187C73.3527 7.89187 72.1081 6.64734 72.1081 5.11781C72.1081 3.58828 73.3527 2.34375 74.8822 2.34375ZM40 2.34375C41.5295 2.34375 42.7741 3.58828 42.7741 5.11781C42.7741 6.64734 41.5295 7.89187 40 7.89187C38.4703 7.89187 37.2259 6.64734 37.2259 5.11781C37.2259 3.58828 38.4703 2.34375 40 2.34375ZM2.34375 5.11781C2.34375 3.58828 3.58813 2.34375 5.11781 2.34375C6.6475 2.34375 7.89187 3.58828 7.89187 5.11781C7.89187 6.64734 6.6475 7.89187 5.11781 7.89187C3.58813 7.89187 2.34375 6.64734 2.34375 5.11781ZM2.34375 40C2.34375 38.4705 3.58813 37.2259 5.11781 37.2259C6.6475 37.2259 7.89187 38.4705 7.89187 40C7.89187 41.5295 6.6475 42.7741 5.11781 42.7741C3.58813 42.7741 2.34375 41.5295 2.34375 40ZM5.11781 77.6562C3.58813 77.6562 2.34375 76.4117 2.34375 74.8822C2.34375 73.3527 3.58813 72.1081 5.11781 72.1081C6.6475 72.1081 7.89187 73.3527 7.89187 74.8822C7.89187 76.4117 6.6475 77.6562 5.11781 77.6562ZM40 77.6562C38.4703 77.6562 37.2259 76.4117 37.2259 74.8822C37.2259 73.3527 38.4703 72.1081 40 72.1081C41.5295 72.1081 42.7741 73.3527 42.7741 74.8822C42.7741 76.4117 41.5295 77.6562 40 77.6562ZM77.6562 74.8822C77.6562 76.4117 76.4117 77.6562 74.8822 77.6562C73.3527 77.6562 72.1081 76.4117 72.1081 74.8822C72.1081 73.3527 73.3527 72.1081 74.8822 72.1081C76.4117 72.1081 77.6562 73.3527 77.6562 74.8822Z" fill="url(#paint0_linear_1240_150)"/>
<path d="M63.0022 48.4342C62.4061 48.1827 61.7186 48.4616 61.4666 49.0577C60.7052 50.8598 59.7339 52.5269 58.5923 54.0405C56.7102 52.7936 54.668 51.7478 52.5142 50.9172C53.2688 47.8922 53.7036 44.5917 53.7845 41.1719H63.2625C63.2148 42.1295 63.1103 43.0833 62.9475 44.0195C62.8367 44.657 63.2638 45.2639 63.9014 45.3748C63.9694 45.3866 64.0367 45.3922 64.1034 45.3922C64.6625 45.3922 65.1575 44.9906 65.2567 44.4208C65.5086 42.9709 65.6366 41.4836 65.6366 40C65.6366 33.8402 63.4523 28.1814 59.8184 23.7559C59.8053 23.7348 59.7927 23.7134 59.7778 23.693C59.727 23.6222 59.6694 23.5594 59.607 23.5036C54.9008 17.9184 47.8583 14.3633 40 14.3633C31.1106 14.3633 22.9831 18.8663 18.2586 26.4089C17.915 26.9575 18.0811 27.6806 18.6297 28.0242C19.1784 28.3675 19.9016 28.2016 20.2448 27.6531C20.6111 27.0684 21.0014 26.5056 21.4111 25.9619C23.2923 27.2077 25.3333 28.2527 27.4856 29.0828C26.7311 32.1078 26.2963 35.4083 26.2153 38.8281H16.737C16.8466 36.612 17.2662 34.4389 17.9908 32.3531C18.2031 31.7419 17.8798 31.0739 17.2683 30.8616C16.6575 30.6491 15.9892 30.9725 15.7769 31.5841C14.8387 34.2842 14.3631 37.1158 14.3631 40C14.3631 46.1598 16.5473 51.8189 20.1814 56.2444C20.1945 56.2655 20.2072 56.2867 20.2219 56.3072C20.2727 56.378 20.3303 56.4406 20.3925 56.4966C25.0991 62.0817 32.1416 65.6369 39.9998 65.6369C50.3311 65.6369 59.6047 59.4874 63.6255 49.9699C63.8773 49.3736 63.5983 48.6861 63.0022 48.4342ZM50.293 50.1484C47.3795 49.2534 44.303 48.7378 41.1719 48.6345V41.1719H51.4406C51.3627 44.327 50.9705 47.3652 50.293 50.1484ZM16.7364 41.1719H26.2153C26.2963 44.5917 26.7311 47.8923 27.4856 50.9172C25.3369 51.7459 23.2991 52.7888 21.4203 54.0319C18.6844 50.4181 16.9761 45.9853 16.7364 41.1719ZM28.5595 41.1719H38.8281V48.6345C35.697 48.7378 32.6205 49.2534 29.707 50.1484C29.0297 47.3652 28.6375 44.327 28.5595 41.1719ZM38.8281 50.9791V63.1658C36.343 62.6309 33.9931 60.405 32.1127 56.7617C31.4269 55.4331 30.8353 53.9692 30.3394 52.4041C33.047 51.567 35.9105 51.0819 38.8281 50.9791ZM41.1719 63.1658V50.9791C44.0895 51.0819 46.953 51.567 49.6606 52.4042C49.1647 53.9694 48.5731 55.4333 47.8873 56.7619C46.0069 60.405 43.657 62.6309 41.1719 63.1658ZM47.8873 23.2383C48.5731 24.5669 49.1647 26.0306 49.6606 27.5958C46.953 28.433 44.0895 28.9181 41.1719 29.0209V16.8342C43.657 17.3691 46.0069 19.595 47.8873 23.2383ZM38.8281 16.8342V29.0209C35.9105 28.9181 33.047 28.433 30.3394 27.5958C30.8353 26.0306 31.4269 24.5667 32.1127 23.2381C33.9931 19.595 36.343 17.3691 38.8281 16.8342ZM41.1719 31.3655C44.303 31.2622 47.3795 30.7466 50.293 29.8516C50.9703 32.6348 51.3627 35.673 51.4406 38.8281H41.1719V31.3655ZM63.2636 38.8281H53.7847C53.7038 35.4083 53.2689 32.1077 52.5144 29.0827C54.6631 28.2539 56.7009 27.2111 58.5797 25.9681C61.3156 29.5819 63.0239 34.0147 63.2636 38.8281ZM57.0616 24.1606C55.4455 25.2078 53.7047 26.0978 51.8731 26.8192C51.3413 25.1506 50.7053 23.5877 49.97 22.1633C49.0698 20.4192 48.0558 18.9473 46.9556 17.768C50.8669 18.9942 54.3364 21.227 57.0616 24.1606ZM22.9225 24.1505C25.6989 21.1473 29.1884 18.9553 33.0555 17.7563C31.9509 18.9377 30.9331 20.4133 30.03 22.1633C29.2948 23.5878 28.6587 25.1506 28.1269 26.8194C26.2894 26.0955 24.5431 25.202 22.9225 24.1505ZM29.707 29.8516C32.6205 30.7466 35.6969 31.2622 38.8281 31.3655V38.8281H28.5595C28.6375 35.673 29.0297 32.6348 29.707 29.8516ZM22.9384 55.8394C24.5545 54.7922 26.2953 53.902 28.1269 53.1806C28.6587 54.8492 29.2947 56.4122 30.03 57.8367C30.9302 59.5808 31.9441 61.0527 33.0442 62.232C29.1331 61.0058 25.6638 58.773 22.9384 55.8394ZM46.9523 62.2356C48.0537 61.0556 49.0689 59.5827 49.97 57.8369C50.7052 56.4124 51.3413 54.8495 51.8731 53.1808C53.7106 53.9045 55.4569 54.798 57.0775 55.8497C54.3219 58.8211 50.833 61.0264 46.9523 62.2356Z" fill="url(#paint1_linear_1240_150)"/>
<defs>
<linearGradient id="paint0_linear_1240_150" x1="0" y1="40" x2="80" y2="40" gradientUnits="userSpaceOnUse">
<stop stop-color="#0062BA"/>
<stop offset="1" stop-color="#009BDE"/>
</linearGradient>
<linearGradient id="paint1_linear_1240_150" x1="14.3631" y1="40.0001" x2="65.6366" y2="40.0001" gradientUnits="userSpaceOnUse">
<stop stop-color="#0062BA"/>
<stop offset="1" stop-color="#009BDE"/>
</linearGradient>
</defs>
</svg>
