<svg width="80" height="80" viewBox="0 0 80 80" fill="none" xmlns="http://www.w3.org/2000/svg">
<path d="M36.9209 54.2603C37.5306 53.6494 37.5306 52.6606 36.9209 52.0496C36.3105 51.4405 35.3217 51.4405 34.7108 52.0496C34.1017 52.6606 34.1017 53.6494 34.7108 54.2603C35.3217 54.8694 36.3105 54.8694 36.9209 54.2603Z" fill="url(#paint0_linear_1240_158)"/>
<path d="M29.5234 17.1826C29.5234 26.6571 37.2315 34.3658 46.706 34.3658C56.1805 34.3658 63.8886 26.6571 63.8886 17.1826C63.8886 7.70813 56.1805 0 46.706 0C37.2315 0 29.5234 7.70813 29.5234 17.1826ZM60.7649 17.1826C60.7649 24.9347 54.4581 31.2415 46.706 31.2415C38.9539 31.2415 32.6472 24.9347 32.6472 17.1826C32.6472 9.43115 38.9539 3.12439 46.706 3.12439C54.4581 3.12439 60.7649 9.43115 60.7649 17.1826Z" fill="url(#paint1_linear_1240_158)"/>
<path d="M18.1489 79.5379C18.7544 80.1482 19.7401 80.1549 20.3535 79.5507L27.9267 72.0898C29.2133 70.8031 29.6046 68.8982 29.0388 67.2423L30.6678 65.6713C31.5449 64.8241 32.6997 64.3572 33.9204 64.3572H54.6864C58.3704 64.3572 61.8525 62.9424 64.4923 60.3735C64.6009 60.2679 63.6677 61.3671 78.6591 43.4496C80.8827 40.819 80.55 36.8688 77.917 34.6429C75.3004 32.4377 71.3807 32.7544 69.1511 35.3399L59.9336 44.8138C58.7696 43.3813 56.9947 42.4883 55.077 42.4883H37.6582C35.1795 41.4513 32.5495 40.9264 29.8359 40.9264C22.3139 40.9264 15.7459 44.4006 12.2212 50.9142C10.7362 50.6329 9.17001 51.0821 8.0433 52.2088L0.612275 59.6618C0.00558573 60.2703 0.0043651 61.2548 0.609834 61.8652L18.1489 79.5379ZM29.8353 44.0502C32.2279 44.0502 34.5411 44.5318 36.7121 45.4815C36.9099 45.5682 37.1229 45.6127 37.3383 45.6127H55.077C56.7707 45.6127 58.2014 46.9939 58.2014 48.7365C58.2014 50.4595 56.8 51.8609 55.077 51.8609H42.3322C41.4698 51.8609 40.7704 52.5603 40.7704 53.4228C40.7704 54.2858 41.4698 54.9847 42.3322 54.9847H55.077C58.5224 54.9847 61.3252 52.1819 61.3252 48.7365C61.3252 48.4618 61.3056 48.1896 61.2702 47.9198C70.1869 38.7542 71.4442 37.4663 71.4979 37.4023C72.6112 36.0882 74.5875 35.9215 75.9022 37.0299C77.2181 38.1426 77.3847 40.1177 76.2684 41.4391L62.2578 58.1884C60.2119 60.1525 57.5257 61.2334 54.6864 61.2334H33.9204C31.8855 61.2334 29.9592 62.0116 28.498 63.4234L27.1705 64.7045L14.933 52.4676C17.7931 47.102 23.1599 44.0502 29.8353 44.0502ZM10.254 54.4164C10.7691 53.9013 11.5602 53.8085 12.1882 54.1967C12.4586 54.3615 11.6822 53.6547 25.7179 67.6708C26.3423 68.2952 26.3087 69.2901 25.7264 69.8724L19.2701 76.2328L3.9216 60.7671L10.254 54.4164Z" fill="url(#paint2_linear_1240_158)"/>
<path d="M44.8317 7.81079V9.64124C43.0134 10.2858 41.7073 12.0222 41.7073 14.059C41.7073 16.6426 43.8093 18.7452 46.3936 18.7452C47.2548 18.7452 47.9554 19.4459 47.9554 20.3071C47.9554 21.1683 47.2548 21.869 46.3936 21.869C45.7264 21.869 45.0056 21.4497 44.3654 20.6874C43.8099 20.027 42.8248 19.9421 42.1644 20.497C41.504 21.0524 41.4186 22.0375 41.974 22.6979C42.809 23.6909 43.791 24.3831 44.8317 24.7322V26.5553C44.8317 27.4183 45.5311 28.1172 46.3936 28.1172C47.256 28.1172 47.9554 27.4183 47.9554 26.5553V24.7249C49.7737 24.0797 51.0798 22.3433 51.0798 20.3071C51.0798 17.7229 48.9778 15.6209 46.3936 15.6209C45.5323 15.6209 44.8317 14.9202 44.8317 14.059C44.8317 13.1978 45.5323 12.4965 46.3936 12.4965C46.9471 12.4965 47.5312 12.7791 48.083 13.3131C48.7031 13.9131 49.6919 13.8966 50.2919 13.2771C50.8918 12.657 50.8754 11.6682 50.2559 11.0682C49.463 10.301 48.6696 9.86707 47.9554 9.63025V7.81079C47.9554 6.94775 47.256 6.24829 46.3936 6.24829C45.5311 6.24829 44.8317 6.94775 44.8317 7.81079Z" fill="url(#paint3_linear_1240_158)"/>
<defs>
<linearGradient id="paint0_linear_1240_158" x1="34.2539" y1="53.155" x2="37.3782" y2="53.155" gradientUnits="userSpaceOnUse">
<stop stop-color="#0062BA"/>
<stop offset="1" stop-color="#009BDE"/>
</linearGradient>
<linearGradient id="paint1_linear_1240_158" x1="29.5234" y1="17.1829" x2="63.8886" y2="17.1829" gradientUnits="userSpaceOnUse">
<stop stop-color="#0062BA"/>
<stop offset="1" stop-color="#009BDE"/>
</linearGradient>
<linearGradient id="paint2_linear_1240_158" x1="0.156494" y1="56.5873" x2="80.1315" y2="56.5873" gradientUnits="userSpaceOnUse">
<stop stop-color="#0062BA"/>
<stop offset="1" stop-color="#009BDE"/>
</linearGradient>
<linearGradient id="paint3_linear_1240_158" x1="41.6074" y1="17.1827" x2="51.0798" y2="17.1827" gradientUnits="userSpaceOnUse">
<stop stop-color="#0062BA"/>
<stop offset="1" stop-color="#009BDE"/>
</linearGradient>
</defs>
</svg>
