<svg width="80" height="80" viewBox="0 0 80 80" fill="none" xmlns="http://www.w3.org/2000/svg">
<path d="M75.812 5.35732C74.8609 5.26083 73.9031 5.45715 73.0667 5.91999C72.6583 4.5952 71.676 3.52419 70.3914 3.0031C69.1067 2.48201 67.6559 2.56605 66.44 3.23199C65.7631 1.13581 63.7125 -0.201557 61.5213 0.0239903C60.0955 0.186075 58.8256 1.00079 58.084 2.22932C56.9755 1.40872 55.5561 1.1317 54.2203 1.47527C52.8846 1.81883 51.775 2.74636 51.2 3.99999H38.0693C37.8261 3.99819 37.5878 3.93045 37.38 3.80399L31.9893 0.578657C31.3696 0.20412 30.6601 0.00417138 29.936 -9.74839e-06H10.1907C7.75074 -0.0326962 5.67304 1.76702 5.35733 4.18666C5.26099 5.13814 5.45729 6.09636 5.92 6.93332C4.59483 7.34116 3.52345 8.32353 3.00251 9.60844C2.48156 10.8934 2.56633 12.3445 3.23333 13.56C1.13391 14.2345 -0.205355 16.2882 0.0239978 18.4813C0.185491 19.9074 1.00036 21.1775 2.22933 21.9187C1.55271 22.8519 1.2424 24.0011 1.35733 25.148C1.54782 26.7422 2.54669 28.1256 4 28.808V41.9333C3.99767 42.1754 3.92945 42.4124 3.80266 42.6187L0.549331 48.0373C0.195266 48.655 0.00609017 49.3534 -2.25252e-06 50.0653V69.8107C-0.0307157 72.2501 1.76896 74.3265 4.188 74.6427C5.13893 74.7365 6.09599 74.5404 6.93333 74.08C7.3415 75.4052 8.32412 76.4766 9.60923 76.9975C10.8943 77.5184 12.3456 77.4337 13.5613 76.7667C14.1791 78.6959 15.9743 80.0036 18 80C19.6074 80.0004 21.096 79.1537 21.9173 77.772C23.0269 78.5926 24.4472 78.8694 25.7837 78.5256C27.1203 78.1819 28.2307 77.2541 28.8067 76H41.9307C42.1739 76.0018 42.4122 76.0695 42.62 76.196L48.0107 79.424C48.6308 79.7971 49.3403 79.9957 50.064 79.9987H69.8093C72.2493 80.0313 74.327 78.2316 74.6427 75.812C74.7387 74.861 74.5424 73.9032 74.08 73.0667C75.4052 72.6588 76.4765 71.6765 76.9975 70.3915C77.5184 69.1066 77.4337 67.6555 76.7667 66.44C78.865 65.7657 80.204 63.7135 79.976 61.5213C79.8145 60.0953 78.9996 58.8252 77.7707 58.084C78.4473 57.1508 78.7576 56.0016 78.6427 54.8547C78.4507 53.2623 77.452 51.8812 76 51.2V38.0667C76.0028 37.824 76.0705 37.5864 76.196 37.3787L79.4253 31.9893C79.7985 31.3687 79.997 30.6588 80 29.9347V10.1893C80.0307 7.7499 78.2311 5.67349 75.812 5.35732ZM2.67733 18.2173C2.61556 17.6522 2.79718 17.0875 3.17681 16.6644C3.55644 16.2412 4.09819 15.9997 4.66667 16H13.3333C14.0697 16 14.6667 15.403 14.6667 14.6667C14.6667 13.9303 14.0697 13.3333 13.3333 13.3333H7.33333C6.76494 13.3347 6.22282 13.0941 5.84244 12.6718C5.46207 12.2494 5.27937 11.6851 5.34 11.12C5.51062 10.0574 6.44863 9.29 7.524 9.33332H16C16.7364 9.33332 17.3333 8.73637 17.3333 7.99999C17.3333 7.26361 16.7364 6.66666 16 6.66666H10C9.43161 6.66801 8.88949 6.42744 8.50911 6.00509C8.12873 5.58273 7.94603 5.01848 8.00667 4.45332C8.17673 3.39038 9.1151 2.62273 10.1907 2.66666H29.936C30.179 2.6685 30.4169 2.73674 30.624 2.86399L36.016 6.09332C36.6365 6.46538 37.3458 6.66343 38.0693 6.66666H50.6667V18.5187L48.3573 16.628C46.6244 15.3053 44.1868 15.4393 42.6093 16.944C41.438 18.0799 41.0309 19.7916 41.5653 21.3333H37.0947C36.0453 21.3377 35.0397 21.7543 34.2947 22.4933L21.7467 34.9387L21.72 34.9653L21.1653 35.5147C20.5149 36.1505 19.4736 36.1434 18.832 35.4987C18.2464 34.9107 18.1893 33.9791 18.6987 33.324L22.3653 28.844C22.6914 28.4452 22.7586 27.8944 22.538 27.4289C22.3174 26.9635 21.8484 26.6667 21.3333 26.6667H6.19067C5.11703 26.7086 4.18117 25.9422 4.01066 24.8813C3.9497 24.3166 4.1317 23.7527 4.51123 23.3302C4.89077 22.9076 5.43204 22.6664 6 22.6667H13.3333C14.0697 22.6667 14.6667 22.0697 14.6667 21.3333C14.6667 20.5969 14.0697 20 13.3333 20H4.85733C3.78477 20.0415 2.84959 19.2768 2.67733 18.2173ZM56 43.5427L43.8267 55.6147C43.5818 55.8594 43.2502 55.9974 42.904 55.9987H36.456L24.3853 43.8307C24.1399 43.5856 24.0014 43.2535 24 42.9067V36.4533L36.1693 24.3853C36.4146 24.1395 36.7474 24.0009 37.0947 24H43.548L55.6187 36.168C55.8622 36.4145 55.9991 36.7468 56 37.0933V43.5427ZM24.8693 75.9893C24.3079 76.0499 23.7475 75.8675 23.3293 75.488C22.9093 75.1071 22.6688 74.567 22.6667 74V73.98V66.6667C22.6667 65.9303 22.0697 65.3333 21.3333 65.3333C20.597 65.3333 20 65.9303 20 66.6667V74V74.0187V75.1453C20.0366 76.2228 19.2637 77.1582 18.1987 77.3253C17.6385 77.3863 17.079 77.2037 16.6627 76.824C16.2416 76.4427 16.001 75.9014 16 75.3333V72.6667V72.64V66.6667C16 65.9303 15.403 65.3333 14.6667 65.3333C13.9303 65.3333 13.3333 65.9303 13.3333 66.6667V72.6667V72.6827C13.3298 73.248 13.0871 73.7855 12.6653 74.162C12.2436 74.5386 11.6822 74.719 11.12 74.6587C10.0576 74.4886 9.2901 73.5511 9.33333 72.476V70V69.98V64C9.33333 63.2636 8.73638 62.6667 8 62.6667C7.26362 62.6667 6.66667 63.2636 6.66667 64V70V70.012C6.6642 70.5778 6.42218 71.1161 6.00059 71.4935C5.579 71.8708 5.01729 72.052 4.45467 71.992C3.39255 71.8221 2.62482 70.8855 2.66666 69.8107V50.0653C2.66872 49.8251 2.73156 49.5894 2.84933 49.38L6.09333 43.9853C6.46461 43.3649 6.66261 42.6563 6.66667 41.9333V29.3333H18.5173L16.6253 31.644C15.4056 33.1276 15.3188 35.2407 16.4129 36.8193C17.5069 38.3979 19.5159 39.0586 21.3333 38.4373V42.9067C21.3378 43.956 21.7544 44.9616 22.4933 45.7067L34.928 58.24C34.9427 58.256 34.9573 58.2707 34.9733 58.2853L35.516 58.832C35.9832 59.3075 36.1191 60.0171 35.8606 60.6316C35.6022 61.2461 35 61.6453 34.3333 61.644C33.9705 61.6456 33.6179 61.5238 33.3333 61.2987L28.8547 57.6333C28.456 57.3004 27.9003 57.2292 27.4306 57.451C26.9609 57.6729 26.6628 58.1472 26.6667 58.6667V73.8093C26.7036 74.8854 25.9327 75.8204 24.8693 75.9893ZM77.3227 61.7827C77.3844 62.3478 77.2028 62.9125 76.8232 63.3356C76.4436 63.7587 75.9018 64.0003 75.3333 64H66.6667C65.9303 64 65.3333 64.5969 65.3333 65.3333C65.3333 66.0697 65.9303 66.6667 66.6667 66.6667H72.6667C73.2351 66.6653 73.7772 66.9059 74.1576 67.3282C74.5379 67.7506 74.7206 68.3148 74.66 68.88C74.4894 69.9426 73.5514 70.71 72.476 70.6667H64C63.2636 70.6667 62.6667 71.2636 62.6667 72C62.6667 72.7364 63.2636 73.3333 64 73.3333H70C70.5684 73.332 71.1105 73.5725 71.4909 73.9949C71.8713 74.4173 72.054 74.9815 71.9933 75.5467C71.8233 76.6096 70.8849 77.3773 69.8093 77.3333H50.064C49.821 77.3315 49.5831 77.2632 49.376 77.136L43.984 73.9067C43.3635 73.5346 42.6542 73.3366 41.9307 73.3333H29.3333V61.4787L31.6427 63.3693C33.374 64.6972 35.8153 64.563 37.3907 63.0533C38.5624 61.9188 38.971 60.2083 38.4387 58.6667H42.9053C43.9547 58.6622 44.9603 58.2456 45.7053 57.5067L58.2493 45.0667L58.296 45.0213L58.8387 44.488C59.4891 43.8521 60.5304 43.8593 61.172 44.504C61.7576 45.0919 61.8147 46.0236 61.3053 46.6787L57.6387 51.1587C57.3147 51.5569 57.2482 52.1057 57.4676 52.5698C57.687 53.0339 58.1533 53.3309 58.6667 53.3333H73.8093C74.883 53.2914 75.8188 54.0578 75.9893 55.1187C76.0503 55.6833 75.8683 56.2473 75.4888 56.6698C75.1092 57.0923 74.568 57.3336 74 57.3333H66.6667C65.9303 57.3333 65.3333 57.9303 65.3333 58.6667C65.3333 59.403 65.9303 60 66.6667 60H75.1467C76.2177 59.9605 77.1506 60.7248 77.3227 61.7827ZM77.3333 29.9347C77.3313 30.1775 77.2636 30.4152 77.1373 30.6227L73.9067 36.0147C73.5348 36.6348 73.3367 37.3436 73.3333 38.0667V50.6667H61.4787L63.3707 48.356C64.744 46.6395 64.6068 44.1648 63.052 42.6107C61.8873 41.493 60.2031 41.1049 58.6667 41.6V37.0933C58.6623 36.044 58.2456 35.0384 57.5067 34.2933L45.0667 21.7413L45.0413 21.716L44.4907 21.1613C44.1783 20.8527 44.0038 20.431 44.0068 19.9919C44.0098 19.5529 44.1901 19.1336 44.5067 18.8293C45.1027 18.2607 46.0217 18.2044 46.6827 18.696L51.1613 22.3613C51.5596 22.6836 52.1073 22.7491 52.5704 22.53C53.0335 22.3108 53.3301 21.8457 53.3333 21.3333V6.19066C53.2921 5.11679 54.059 4.18111 55.12 4.01066C55.6845 3.9501 56.2481 4.13228 56.6703 4.51177C57.0925 4.89126 57.3335 5.43229 57.3333 5.99999V13.3333C57.3333 14.0697 57.9303 14.6667 58.6667 14.6667C59.4031 14.6667 60 14.0697 60 13.3333V4.85732C59.9582 3.78325 60.7253 2.84722 61.7867 2.67732C62.3511 2.61677 62.9147 2.79895 63.3369 3.17843C63.7592 3.55792 64.0002 4.09896 64 4.66666V13.3333C64 14.0697 64.597 14.6667 65.3333 14.6667C66.0697 14.6667 66.6667 14.0697 66.6667 13.3333V7.33332C66.6657 6.76516 66.9064 6.2234 67.3287 5.84332C67.7511 5.46324 68.3151 5.28072 68.88 5.34132C69.9424 5.51134 70.7099 6.44892 70.6667 7.52399V16C70.6667 16.7364 71.2636 17.3333 72 17.3333C72.7364 17.3333 73.3333 16.7364 73.3333 16V9.99999C73.3324 9.43183 73.5731 8.89007 73.9954 8.50999C74.4177 8.12991 74.9818 7.94739 75.5467 8.00799C76.6082 8.1785 77.3753 9.11496 77.3333 10.1893V29.9347Z" fill="url(#paint0_linear_1240_571)"/>
<defs>
<linearGradient id="paint0_linear_1240_571" x1="-0.0014782" y1="39.9996" x2="80.0012" y2="39.9996" gradientUnits="userSpaceOnUse">
<stop stop-color="#0062BA"/>
<stop offset="1" stop-color="#009BDE"/>
</linearGradient>
</defs>
</svg>
