<svg width="80" height="80" viewBox="0 0 80 80" fill="none" xmlns="http://www.w3.org/2000/svg">
<path d="M12.5658 64.8323C15.2487 62.3107 15.3795 58.0917 12.8578 55.4088C10.3362 52.726 6.11717 52.595 3.43417 55.1167C0.751334 57.6383 0.6205 61.8573 3.14217 64.5402C3.2365 64.6405 3.33383 64.7378 3.43417 64.8322C1.32583 65.9718 0.00850032 68.1723 3.14192e-07 70.569V78.6666C-0.000499686 79.4026 0.595834 79.9995 1.33183 80C1.33233 80 1.33283 80 1.33333 80H14.6667C15.4027 80.0005 15.9995 79.4042 16 78.6682C16 78.6677 16 78.6672 16 78.6666V70.569C15.9915 68.1723 14.6742 65.9718 12.5658 64.8323ZM8 56C10.2092 56 12 57.7908 12 60C12 62.2092 10.2092 64 8 64C5.79083 64 4 62.2092 4 60C4.00233 57.7918 5.79183 56.0023 8 56ZM13.3333 77.3333H2.66667V70.569C2.66867 68.4147 4.41467 66.6687 6.569 66.6667H9.431C11.5853 66.6687 13.3313 68.4147 13.3333 70.569V77.3333Z" fill="url(#paint0_linear_1240_144)"/>
<path d="M33.8992 64.8323C36.582 62.3107 36.7128 58.0917 34.1912 55.4088C31.6695 52.726 27.4505 52.5952 24.7677 55.1168C22.0848 57.6385 21.954 61.8575 24.4757 64.5404C24.57 64.6407 24.6673 64.738 24.7677 64.8323C22.6592 65.9718 21.3418 68.1723 21.3335 70.569V78.6667C21.333 79.4027 21.9293 79.9995 22.6653 80C22.6658 80 22.6663 80 22.6668 80H36.0002C36.7362 80.0005 37.333 79.4042 37.3335 78.6682C37.3335 78.6677 37.3335 78.6672 37.3335 78.6667V70.569C37.3248 68.1723 36.0075 65.9718 33.8992 64.8323ZM29.3333 56C31.5425 56 33.3333 57.7908 33.3333 60C33.3333 62.2092 31.5425 64 29.3333 64C27.1242 64 25.3333 62.2092 25.3333 60C25.3357 57.7918 27.1252 56.0023 29.3333 56ZM34.6667 77.3334H24V70.569C24.002 68.4147 25.748 66.6687 27.9023 66.6667H30.7643C32.9187 66.6687 34.6647 68.4147 34.6667 70.569V77.3334Z" fill="url(#paint1_linear_1240_144)"/>
<path d="M55.2325 64.8323C57.9153 62.3107 58.0462 58.0917 55.5245 55.4088C53.0028 52.726 48.7838 52.5952 46.101 55.1168C43.4182 57.6385 43.2873 61.8575 45.809 64.5404C45.9033 64.6407 46.0007 64.738 46.101 64.8323C43.9925 65.9718 42.6752 68.1723 42.6668 70.569V78.6667C42.6663 79.4027 43.2627 79.9995 43.9987 80C43.9992 80 43.9997 80 44.0002 80H57.3335C58.0695 80.0005 58.6663 79.4042 58.6668 78.6682C58.6668 78.6677 58.6668 78.6672 58.6668 78.6667V70.569C58.6582 68.1723 57.3408 65.9718 55.2325 64.8323ZM50.6667 56C52.8758 56 54.6667 57.7908 54.6667 60C54.6667 62.2092 52.8758 64 50.6667 64C48.4575 64 46.6667 62.2092 46.6667 60C46.669 57.7918 48.4585 56.0023 50.6667 56ZM56 77.3334H45.3333V70.569C45.3353 68.4147 47.0813 66.6687 49.2357 66.6667H52.0977C54.252 66.6687 55.998 68.4147 56 70.569V77.3334Z" fill="url(#paint2_linear_1240_144)"/>
<path d="M76.5658 64.8323C79.2487 62.3107 79.3795 58.0917 76.8578 55.4088C74.3362 52.726 70.1172 52.5952 67.4343 55.1168C64.7515 57.6385 64.6207 61.8575 67.1423 64.5404C67.2367 64.6407 67.334 64.738 67.4343 64.8323C65.3258 65.9718 64.0085 68.1723 64.0002 70.569V78.6667C63.9997 79.4027 64.596 79.9995 65.332 80C65.3325 80 65.333 80 65.3335 80H78.6668C79.4028 80.0005 79.9997 79.4042 80.0002 78.6682C80.0002 78.6677 80.0002 78.6672 80.0002 78.6667V70.569C79.9915 68.1723 78.6742 65.9718 76.5658 64.8323ZM72 56C74.2092 56 76 57.7908 76 60C76 62.2092 74.2092 64 72 64C69.7908 64 68 62.2092 68 60C68.0023 57.7918 69.7918 56.0023 72 56ZM77.3333 77.3334H66.6667V70.569C66.6687 68.4147 68.4147 66.6687 70.569 66.6667H73.431C75.5853 66.6687 77.3313 68.4147 77.3333 70.569V77.3334Z" fill="url(#paint3_linear_1240_144)"/>
<path d="M48.0015 6.66667C48.001 6.66667 48.0005 6.66667 48 6.66667H29.3333C28.5973 6.66616 28.0005 7.2625 28 7.9985C28 7.999 28 7.9995 28 8V32C27.9995 32.736 28.5958 33.3328 29.3318 33.3333C29.3323 33.3333 29.3328 33.3333 29.3333 33.3333H48C48.736 33.3338 49.3328 32.7375 49.3333 32.0015C49.3333 32.001 49.3333 32.0005 49.3333 32V8C49.3338 7.264 48.7375 6.66716 48.0015 6.66667ZM46.6667 30.6667H30.6667V9.33333H46.6667V30.6667Z" fill="url(#paint4_linear_1240_144)"/>
<path d="M70.5609 7.04383C70.5042 6.9845 70.4462 6.9265 70.3869 6.86983C68.2355 4.82817 64.8623 4.82817 62.711 6.86983L62.6667 6.91283L62.6223 6.86983C60.471 4.82817 57.0978 4.82817 54.9465 6.86983C52.8653 8.85483 52.7875 12.1512 54.7725 14.2323C54.8292 14.2917 54.8872 14.3497 54.9465 14.4063L61.7408 20.9597C62.2575 21.458 63.0758 21.458 63.5923 20.9597L70.3867 14.4063C72.4679 12.4213 72.5459 9.125 70.5609 7.04383ZM68.6417 12.3805C68.6072 12.417 68.5717 12.4525 68.5352 12.487L62.6667 18.1472L56.7982 12.487C55.777 11.5247 55.7293 9.91683 56.6917 8.89566C56.7262 8.85916 56.7617 8.82366 56.7982 8.78916C57.912 7.73366 59.657 7.73366 60.7708 8.78916L61.7408 9.72533C62.2578 10.2227 63.0755 10.2227 63.5923 9.72533L64.5623 8.78916C65.6758 7.7325 67.4215 7.7325 68.535 8.78916C69.5564 9.75133 69.604 11.3593 68.6417 12.3805Z" fill="url(#paint5_linear_1240_144)"/>
<path d="M43.733 19.2005L39.733 13.8672C39.249 13.2782 38.3792 13.1932 37.7902 13.6772C37.7208 13.7342 37.6572 13.7978 37.6002 13.8672L33.6002 19.2005C33.2447 19.6742 33.2447 20.3257 33.6002 20.7995L37.6002 26.1328C38.041 26.7218 38.8757 26.8418 39.4647 26.4012C39.5665 26.325 39.6568 26.2347 39.733 26.1328L43.733 20.7995C44.0885 20.3258 44.0885 19.6742 43.733 19.2005ZM38.6667 23.1107L36.3333 20L38.6667 16.8893L41 20L38.6667 23.1107Z" fill="url(#paint6_linear_1240_144)"/>
<path d="M62.6667 24C56.7757 24 52 28.7757 52 34.6667C52 40.5577 56.7757 45.3333 62.6667 45.3333C68.5577 45.3333 73.3333 40.5577 73.3333 34.6667C73.3267 28.7785 68.5548 24.0067 62.6667 24ZM62.6667 42.6667C58.2483 42.6667 54.6667 39.085 54.6667 34.6667C54.6667 30.2483 58.2483 26.6667 62.6667 26.6667C67.085 26.6667 70.6667 30.2483 70.6667 34.6667C70.6618 39.083 67.083 42.6618 62.6667 42.6667Z" fill="url(#paint7_linear_1240_144)"/>
<path d="M64 37.3333C63.9995 38.0695 63.4028 38.6662 62.6667 38.6667C61.9305 38.6662 61.3338 38.0695 61.3333 37.3333H58.6667C58.6667 39.5425 60.4575 41.3333 62.6667 41.3333C64.8758 41.3333 66.6667 39.5425 66.6667 37.3333H64Z" fill="url(#paint8_linear_1240_144)"/>
<path d="M66 30.6667C64.8955 30.6667 64 31.5622 64 32.6667C64 33.7712 64.8955 34.6667 66 34.6667C67.1045 34.6667 68 33.7712 68 32.6667C67.9988 31.5627 67.104 30.6678 66 30.6667ZM66 33.3333C65.6318 33.3333 65.3333 33.0348 65.3333 32.6667C65.3333 32.2985 65.6318 32 66 32C66.3682 32 66.6667 32.2985 66.6667 32.6667C66.666 33.0345 66.3678 33.3327 66 33.3333Z" fill="url(#paint9_linear_1240_144)"/>
<path d="M59.3333 30.6667C58.2288 30.6667 57.3333 31.5622 57.3333 32.6667C57.3333 33.7712 58.2288 34.6667 59.3333 34.6667C60.4373 34.6655 61.3322 33.7707 61.3333 32.6667C61.3333 31.5622 60.4378 30.6667 59.3333 30.6667ZM59.3333 33.3333C58.9655 33.3327 58.6673 33.0345 58.6667 32.6667C58.6667 32.2985 58.9652 32 59.3333 32C59.7015 32 60 32.2985 60 32.6667C60 33.0348 59.7015 33.3333 59.3333 33.3333Z" fill="url(#paint10_linear_1240_144)"/>
<path d="M24.0015 26.6667C24.001 26.6667 24.0005 26.6667 24 26.6667H8C7.264 26.6662 6.66717 27.2625 6.66667 27.9985C6.66667 27.999 6.66667 27.9995 6.66667 28V37.3333C6.66617 38.0693 7.2625 38.6662 7.9985 38.6667C7.999 38.6667 7.9995 38.6667 8 38.6667H12.8503L20.4792 45.0247C21.045 45.4962 21.886 45.4197 22.3575 44.8538C22.6158 44.544 22.7198 44.1337 22.6407 43.7382L21.6263 38.6667H24C24.736 38.6672 25.3328 38.0708 25.3333 37.3348C25.3333 37.3343 25.3333 37.3338 25.3333 37.3333V28C25.3338 27.264 24.7375 26.6672 24.0015 26.6667ZM22.6667 36H20C19.2637 36 18.6667 36.597 18.6668 37.3335C18.6668 37.4213 18.6755 37.509 18.6928 37.5952L19.2853 40.5573L14.1877 36.3087C13.9475 36.1092 13.6453 36 13.3333 36H9.33334V29.3333H22.6667V36Z" fill="url(#paint11_linear_1240_144)"/>
<path d="M64.5378 0H15.4622C6.92667 0.0095 0.0095024 6.92667 2.40035e-06 15.4622V35.2043C0.0095024 43.74 6.92667 50.6572 15.4622 50.6667H64.5377C73.0733 50.6572 79.9903 43.74 79.9998 35.2045V15.4622C79.9905 6.92667 73.0733 0.0095 64.5378 0ZM77.3333 35.2045C77.3257 42.2682 71.6013 47.9925 64.5378 48H15.4622C8.39867 47.9923 2.67434 42.268 2.66667 35.2045V15.4622C2.67434 8.39867 8.39867 2.67433 15.4622 2.66667H64.5377C71.6013 2.67433 77.3257 8.39867 77.3332 15.4622L77.3333 35.2045Z" fill="url(#paint12_linear_1240_144)"/>
<path d="M17.4587 5.44716C16.9762 5.37116 16.4885 5.333 16 5.33333C12.0447 5.3405 8.52267 7.83783 7.20683 11.5678L7.19917 11.582L7.19333 11.6045C7.0285 12.0763 6.90233 12.5608 6.816 13.053C6.80667 13.1047 6.80067 13.1562 6.79233 13.2078C5.99 18.2963 9.46467 23.0718 14.5532 23.8742C19.6417 24.6765 24.4172 21.2018 25.2195 16.1133C26.0218 11.0248 22.5472 6.2495 17.4587 5.44716ZM14.5553 21.1657C11.0465 20.434 8.774 17.022 9.45117 13.5022C12.4963 14.18 14.6637 16.8802 14.6667 20C14.6648 20.3912 14.6275 20.7813 14.5553 21.1657ZM17.2292 21.209C17.2908 20.8087 17.3257 20.4048 17.3333 20C17.3295 15.789 14.5047 12.103 10.4397 11.004C11.414 9.52333 12.9372 8.49083 14.6733 8.134C14.7563 12.5237 17.8758 16.2673 22.1787 17.1407C21.3303 19.252 19.4647 20.7853 17.2292 21.209ZM17.3472 8.13733C20.3828 8.77183 22.5808 11.4148 22.6513 14.5155C19.6188 13.8757 17.4233 11.2357 17.3472 8.13733Z" fill="url(#paint13_linear_1240_144)"/>
<defs>
<linearGradient id="paint0_linear_1240_144" x1="0" y1="40" x2="80.0002" y2="40" gradientUnits="userSpaceOnUse">
<stop stop-color="#0062BA"/>
<stop offset="1" stop-color="#009BDE"/>
</linearGradient>
<linearGradient id="paint1_linear_1240_144" x1="0" y1="40" x2="80.0002" y2="40" gradientUnits="userSpaceOnUse">
<stop stop-color="#0062BA"/>
<stop offset="1" stop-color="#009BDE"/>
</linearGradient>
<linearGradient id="paint2_linear_1240_144" x1="0" y1="40" x2="80.0002" y2="40" gradientUnits="userSpaceOnUse">
<stop stop-color="#0062BA"/>
<stop offset="1" stop-color="#009BDE"/>
</linearGradient>
<linearGradient id="paint3_linear_1240_144" x1="0" y1="40" x2="80.0002" y2="40" gradientUnits="userSpaceOnUse">
<stop stop-color="#0062BA"/>
<stop offset="1" stop-color="#009BDE"/>
</linearGradient>
<linearGradient id="paint4_linear_1240_144" x1="0" y1="40" x2="80.0002" y2="40" gradientUnits="userSpaceOnUse">
<stop stop-color="#0062BA"/>
<stop offset="1" stop-color="#009BDE"/>
</linearGradient>
<linearGradient id="paint5_linear_1240_144" x1="0" y1="40" x2="80.0002" y2="40" gradientUnits="userSpaceOnUse">
<stop stop-color="#0062BA"/>
<stop offset="1" stop-color="#009BDE"/>
</linearGradient>
<linearGradient id="paint6_linear_1240_144" x1="0" y1="40" x2="80.0002" y2="40" gradientUnits="userSpaceOnUse">
<stop stop-color="#0062BA"/>
<stop offset="1" stop-color="#009BDE"/>
</linearGradient>
<linearGradient id="paint7_linear_1240_144" x1="0" y1="40" x2="80.0002" y2="40" gradientUnits="userSpaceOnUse">
<stop stop-color="#0062BA"/>
<stop offset="1" stop-color="#009BDE"/>
</linearGradient>
<linearGradient id="paint8_linear_1240_144" x1="0" y1="40" x2="80.0002" y2="40" gradientUnits="userSpaceOnUse">
<stop stop-color="#0062BA"/>
<stop offset="1" stop-color="#009BDE"/>
</linearGradient>
<linearGradient id="paint9_linear_1240_144" x1="0" y1="40" x2="80.0002" y2="40" gradientUnits="userSpaceOnUse">
<stop stop-color="#0062BA"/>
<stop offset="1" stop-color="#009BDE"/>
</linearGradient>
<linearGradient id="paint10_linear_1240_144" x1="0" y1="40" x2="80.0002" y2="40" gradientUnits="userSpaceOnUse">
<stop stop-color="#0062BA"/>
<stop offset="1" stop-color="#009BDE"/>
</linearGradient>
<linearGradient id="paint11_linear_1240_144" x1="0" y1="40" x2="80.0002" y2="40" gradientUnits="userSpaceOnUse">
<stop stop-color="#0062BA"/>
<stop offset="1" stop-color="#009BDE"/>
</linearGradient>
<linearGradient id="paint12_linear_1240_144" x1="0" y1="40" x2="80.0002" y2="40" gradientUnits="userSpaceOnUse">
<stop stop-color="#0062BA"/>
<stop offset="1" stop-color="#009BDE"/>
</linearGradient>
<linearGradient id="paint13_linear_1240_144" x1="0" y1="40" x2="80.0002" y2="40" gradientUnits="userSpaceOnUse">
<stop stop-color="#0062BA"/>
<stop offset="1" stop-color="#009BDE"/>
</linearGradient>
</defs>
</svg>
