<svg width="20" height="16" viewBox="0 0 20 16" fill="none" xmlns="http://www.w3.org/2000/svg">
<path d="M1.21582 2.94112H18.7845C19.4548 2.94112 20 2.39597 20 1.72558C20 1.0552 19.4548 0.509766 18.7845 0.509766H1.21582C0.545437 0.509766 0 1.0552 0 1.72558C0 2.39597 0.545437 2.94112 1.21582 2.94112Z" fill="#0070BA"/>
<path d="M18.7845 6.78418H1.21582C0.545437 6.78418 0 7.32962 0 8C0 8.67038 0.545437 9.21553 1.21582 9.21553H18.7845C19.4548 9.21553 20 8.67038 20 8C20 7.32962 19.4548 6.78418 18.7845 6.78418Z" fill="#0070BA"/>
<path d="M18.7845 13.0586H1.21582C0.545437 13.0586 0 13.6043 0 14.2747C0 14.9451 0.545437 15.4902 1.21582 15.4902H18.7845C19.4548 15.4902 20 14.9451 20 14.2747C20 13.6043 19.4548 13.0586 18.7845 13.0586Z" fill="#0070BA"/>
</svg>
