<svg width="28" height="27" viewBox="0 0 28 27" fill="none" xmlns="http://www.w3.org/2000/svg">
<path d="M21.753 16.7098C21.2062 16.1406 20.5468 15.8362 19.8479 15.8362C19.1546 15.8362 18.4895 16.1349 17.9202 16.7042L16.1391 18.4797C15.9926 18.4008 15.8461 18.3275 15.7051 18.2542C15.5022 18.1528 15.3106 18.0569 15.1471 17.9555C13.4788 16.8958 11.9626 15.5149 10.5084 13.7282C9.80386 12.8377 9.33041 12.088 8.98659 11.3271C9.44877 10.9044 9.87714 10.4647 10.2942 10.042C10.452 9.88419 10.6099 9.72073 10.7677 9.56291C11.9513 8.37928 11.9513 6.84618 10.7677 5.66254L9.22895 4.12381C9.05422 3.94908 8.87386 3.76872 8.70477 3.58836C8.36659 3.2389 8.0115 2.87817 7.64513 2.53999C7.0984 1.9989 6.44459 1.71144 5.75695 1.71144C5.06931 1.71144 4.40422 1.9989 3.84058 2.53999C3.83494 2.54563 3.83495 2.54563 3.82931 2.55126L1.91294 4.48454C1.19149 5.206 0.780031 6.08527 0.689849 7.10545C0.554576 8.75128 1.0393 10.2844 1.4113 11.2876C2.3244 13.7507 3.6884 16.0335 5.72313 18.4797C8.19186 21.4275 11.1622 23.7553 14.5553 25.3955C15.8517 26.0099 17.5821 26.737 19.5153 26.861C19.6337 26.8666 19.7577 26.8722 19.8704 26.8722C21.1724 26.8722 22.2659 26.4044 23.1226 25.4744C23.1282 25.4631 23.1395 25.4575 23.1452 25.4462C23.4382 25.0911 23.7764 24.7699 24.1315 24.426C24.3739 24.195 24.6219 23.9526 24.8643 23.6989C25.4223 23.1184 25.7153 22.442 25.7153 21.7488C25.7153 21.0499 25.4166 20.3791 24.8473 19.8155L21.753 16.7098ZM23.7708 22.6449C23.7652 22.6506 23.7652 22.6449 23.7708 22.6449C23.551 22.8817 23.3255 23.0959 23.0832 23.3326C22.7168 23.682 22.3448 24.0484 21.9953 24.4599C21.4261 25.0686 20.7553 25.356 19.8761 25.356C19.7915 25.356 19.7013 25.356 19.6168 25.3504C17.9428 25.2433 16.3871 24.5895 15.2204 24.0315C12.0302 22.4871 9.22895 20.2946 6.90113 17.5158C4.97913 15.1993 3.69404 13.0575 2.84294 10.7578C2.31876 9.35437 2.12712 8.26091 2.21167 7.22945C2.26803 6.57 2.52167 6.02327 2.98949 5.55545L4.91149 3.63345C5.18767 3.37417 5.48077 3.23326 5.76822 3.23326C6.12331 3.23326 6.41077 3.44745 6.59113 3.62781C6.59677 3.63345 6.6024 3.63908 6.60804 3.64472C6.95186 3.96599 7.27877 4.29854 7.62259 4.65363C7.79731 4.83399 7.97768 5.01436 8.15804 5.20036L9.69677 6.73909C10.2942 7.33655 10.2942 7.88891 9.69677 8.48637C9.53332 8.64982 9.3755 8.81328 9.21204 8.9711C8.73859 9.45582 8.28768 9.90673 7.79731 10.3464C7.78604 10.3576 7.77477 10.3633 7.76913 10.3746C7.28441 10.8593 7.37459 11.3327 7.47604 11.654C7.48168 11.6709 7.48731 11.6878 7.49295 11.7047C7.89313 12.6742 8.45677 13.5873 9.3135 14.6751L9.31913 14.6807C10.8748 16.5971 12.515 18.0908 14.3242 19.2349C14.5553 19.3815 14.7921 19.4998 15.0175 19.6126C15.2204 19.714 15.4121 19.8098 15.5755 19.9113C15.5981 19.9226 15.6206 19.9395 15.6431 19.9508C15.8348 20.0466 16.0151 20.0917 16.2011 20.0917C16.669 20.0917 16.9621 19.7986 17.0579 19.7028L18.9855 17.7751C19.1772 17.5835 19.4815 17.3524 19.8366 17.3524C20.1861 17.3524 20.4735 17.5722 20.6482 17.7638C20.6539 17.7695 20.6539 17.7695 20.6595 17.7751L23.7652 20.8808C24.3457 21.4557 24.3457 22.0475 23.7708 22.6449Z" fill="white"/>
<path d="M15.0795 6.51927C16.5562 6.76727 17.8977 7.46618 18.9686 8.5371C20.0395 9.60801 20.7328 10.9495 20.9864 12.4262C21.0484 12.7982 21.3697 13.0575 21.7361 13.0575C21.7812 13.0575 21.8206 13.0518 21.8657 13.0462C22.2828 12.9786 22.559 12.584 22.4913 12.1669C22.187 10.3802 21.3415 8.75128 20.0508 7.46055C18.7601 6.16982 17.1311 5.32436 15.3444 5.02C14.9273 4.95236 14.5384 5.22854 14.4651 5.64C14.3919 6.05145 14.6624 6.45164 15.0795 6.51927Z" fill="white"/>
<path d="M27.3217 11.9471C26.8201 9.00491 25.4335 6.32763 23.303 4.19708C21.1724 2.06653 18.4951 0.679986 15.553 0.178349C15.1415 0.105076 14.7526 0.386894 14.6793 0.79835C14.6117 1.21544 14.8879 1.60435 15.305 1.67762C17.9315 2.1229 20.327 3.36854 22.2321 5.268C24.1372 7.17309 25.3772 9.56855 25.8224 12.1951C25.8844 12.5671 26.2057 12.8264 26.5721 12.8264C26.6172 12.8264 26.6566 12.8207 26.7017 12.8151C27.1132 12.7531 27.395 12.3586 27.3217 11.9471Z" fill="white"/>
</svg>
