<svg width="80" height="76" viewBox="0 0 80 76" fill="none" xmlns="http://www.w3.org/2000/svg">
<path d="M73.1258 45.312C72.5983 44.935 71.8653 45.0572 71.4884 45.5847C71.1116 46.112 71.2336 46.8452 71.7609 47.222C75.45 49.8581 77.6525 54.1349 77.6525 58.6624C77.6525 62.0402 76.4541 65.1431 74.4606 67.5692C72.8169 64.4111 70.5208 62.381 68.7214 61.1702C69.6973 59.9892 70.2511 58.4906 70.2511 56.9316C70.2511 53.2652 67.2683 50.2822 63.6019 50.2822C59.9355 50.2822 56.9525 53.265 56.9525 56.9316C56.9525 58.4906 57.5064 59.9892 58.4822 61.1702C56.683 62.381 54.3869 64.4113 52.7431 67.5692C50.7497 65.1431 49.5512 62.0402 49.5512 58.6625C49.5512 50.915 55.8544 44.6119 63.6019 44.6119C65.0917 44.6119 66.5581 44.8438 67.9605 45.3008C68.5762 45.5013 69.2392 45.1649 69.4402 44.5486C69.6411 43.9322 69.3042 43.2699 68.688 43.0689C67.0503 42.5352 65.3391 42.2644 63.6019 42.2644C58.2547 42.2644 53.4975 44.8374 50.5023 48.8099L41.1894 42.7986V33.6933C49.6855 33.0894 56.4137 25.9849 56.4137 17.3378C56.4137 8.29595 49.0577 0.939697 40.0158 0.939697C36.6631 0.939697 33.4391 1.94501 30.692 3.84673C30.1591 4.21564 30.0261 4.94673 30.3952 5.47985C30.7641 6.01251 31.4952 6.14579 32.0283 5.77657C34.3809 4.14798 37.143 3.28704 40.0158 3.28704C47.7633 3.28704 54.0664 9.59017 54.0664 17.3377C54.0664 20.7155 52.8681 23.8185 50.8745 26.2444C49.2308 23.0864 46.9347 21.0561 45.1353 19.8453C46.1112 18.6644 46.665 17.1658 46.665 15.6066C46.665 11.9403 43.6822 8.95735 40.0158 8.95735C36.3494 8.95735 33.3666 11.9402 33.3666 15.6066C33.3666 17.1658 33.9203 18.6645 34.8962 19.8453C33.0969 21.0561 30.8009 23.0864 29.157 26.2444C27.1634 23.8185 25.9652 20.7155 25.9652 17.3377C25.9652 14.2072 26.972 11.2452 28.877 8.77173C29.2725 8.25829 29.1769 7.52126 28.6634 7.12579C28.1498 6.73001 27.4128 6.82579 27.0173 7.33939C24.7933 10.2269 23.6178 13.6842 23.6178 17.3375C23.6178 25.9847 30.3459 33.0892 38.842 33.693V42.7983L29.4919 48.8336C26.4963 44.8653 21.7419 42.2956 16.3981 42.2956C7.35609 42.2958 0 49.652 0 58.6939C0 62.4496 1.30203 66.1199 3.66641 69.0291C5.99641 71.8963 9.25547 73.912 12.843 74.7053C13.4758 74.8449 14.1023 74.4455 14.2423 73.8127C14.3822 73.1799 13.9827 72.5533 13.3497 72.4133C11.1167 71.9195 9.03375 70.8699 7.29437 69.391C9.09047 65.4277 12.0994 63.3261 13.7919 62.4056C14.5397 62.0274 14.6119 60.8924 13.9177 60.4225C12.7967 59.6141 12.1275 58.3089 12.1275 56.9314C12.1275 54.5594 14.0573 52.6295 16.4294 52.6295C18.8014 52.6295 20.7312 54.5594 20.7312 56.9314C20.7312 58.3089 20.062 59.6141 18.9412 60.4225C18.247 60.8924 18.3194 62.0274 19.067 62.4056C20.7542 63.3231 23.7495 65.4141 25.5478 69.353C23.3419 71.2495 20.6064 72.4206 17.6884 72.6863C17.0428 72.745 16.5672 73.316 16.6258 73.9614C16.6812 74.5708 17.1931 75.0289 17.7933 75.0289C17.8289 75.0289 17.8648 75.0272 17.9009 75.0239C21.958 74.655 25.7152 72.7927 28.4806 69.7803C31.2633 66.7489 32.7959 62.8117 32.7959 58.6941C32.7959 55.8356 32.06 53.1461 30.7689 50.8038L40.0158 44.8352L49.2264 50.7805C47.9381 53.121 47.2039 55.8074 47.2039 58.6625C47.2039 67.7044 54.56 75.0606 63.6019 75.0606C72.6438 75.0606 80 67.7042 80 58.6624C80 53.3786 77.4302 48.3878 73.1258 45.312ZM27.2881 67.5688C25.6444 64.411 23.3484 62.381 21.5492 61.1702C22.525 59.9892 23.0789 58.4906 23.0789 56.9316C23.0789 53.2652 20.0961 50.2822 16.4297 50.2822C12.7633 50.2822 9.78047 53.265 9.78047 56.9316C9.78047 58.4906 10.3344 59.9892 11.3102 61.1702C9.50187 62.387 7.19156 64.4317 5.54609 67.6171C5.52703 67.5941 5.50703 67.572 5.48812 67.5488C3.46281 65.0567 2.34734 61.912 2.34734 58.6941C2.34734 50.9466 8.65047 44.6435 16.398 44.6435C24.1455 44.6435 30.4486 50.9466 30.4486 58.6941C30.4486 61.9466 29.3305 65.0661 27.2881 67.5688ZM37.3783 21.0808C38.1261 20.7024 38.1981 19.5674 37.5041 19.0977C36.3831 18.2894 35.7141 16.9842 35.7141 15.6066C35.7141 13.2345 37.6439 11.3049 40.0159 11.3049C42.388 11.3049 44.3178 13.2345 44.3178 15.6066C44.3178 16.9842 43.6488 18.2894 42.5278 19.0977C41.8336 19.5674 41.9058 20.7024 42.6536 21.0808C44.3398 21.9978 47.3328 24.0869 49.1312 28.0211C46.6758 30.1192 43.4916 31.3881 40.0163 31.3881C36.5408 31.3881 33.3567 30.1192 30.9011 28.0211C32.6992 24.0869 35.6922 21.998 37.3783 21.0808ZM63.602 72.713C60.1266 72.713 56.9423 71.4439 54.4869 69.3458C56.2853 65.4114 59.2783 63.3225 60.9644 62.4056C61.7122 62.0274 61.7844 60.8924 61.0902 60.4225C59.9692 59.6141 59.3 58.3089 59.3 56.9314C59.3 54.5594 61.2298 52.6295 63.6019 52.6295C65.9739 52.6295 67.9038 54.5594 67.9038 56.9314C67.9038 58.3089 67.2345 59.6141 66.1136 60.4225C65.4194 60.8924 65.4917 62.0274 66.2394 62.4056C67.9255 63.3227 70.9184 65.4114 72.7169 69.346C70.2616 71.4441 67.0773 72.713 63.602 72.713Z" fill="url(#paint0_linear_1240_537)" stroke="url(#paint1_linear_1240_537)" stroke-width="0.3"/>
<defs>
<linearGradient id="paint0_linear_1240_537" x1="0" y1="38.0002" x2="80" y2="38.0002" gradientUnits="userSpaceOnUse">
<stop stop-color="#0062BA"/>
<stop offset="1" stop-color="#009BDE"/>
</linearGradient>
<linearGradient id="paint1_linear_1240_537" x1="0" y1="38.0002" x2="80" y2="38.0002" gradientUnits="userSpaceOnUse">
<stop stop-color="#0062BA"/>
<stop offset="1" stop-color="#009BDE"/>
</linearGradient>
</defs>
</svg>
