<svg width="20" height="21" viewBox="0 0 20 21" fill="none" xmlns="http://www.w3.org/2000/svg">
<path d="M19.5264 17.5826L14.9282 12.9841C15.7095 11.7404 16.1629 10.2703 16.1629 8.69262C16.1629 4.22919 12.5446 0.611328 8.0813 0.611328C3.61803 0.611328 0 4.22919 0 8.69262C0 13.1562 3.61786 16.7737 8.0813 16.7737C9.79821 16.7737 11.3885 16.237 12.6971 15.3249L17.2405 19.8686C17.5562 20.184 17.9701 20.3411 18.3834 20.3411C18.7973 20.3411 19.2107 20.184 19.5269 19.8686C20.1578 19.2371 20.1578 18.214 19.5264 17.5826ZM8.0813 14.1555C5.06453 14.1555 2.61873 11.7099 2.61873 8.69295C2.61873 5.67602 5.06453 3.23022 8.0813 3.23022C11.0982 3.23022 13.5439 5.67602 13.5439 8.69295C13.5439 11.7099 11.0982 14.1555 8.0813 14.1555Z" fill="#222222"/>
</svg>
