<svg width="42" height="45" viewBox="0 0 42 45" fill="none" xmlns="http://www.w3.org/2000/svg">
<path d="M38.4718 16.1362H35.1145V6.11256C35.4472 5.95825 35.6599 5.64658 35.6599 5.28689C35.6599 4.8607 35.362 4.50093 34.9186 4.39184L21.2602 1.03141C21.09 0.989587 20.9102 0.989502 20.7401 1.03132L7.0816 4.39184C6.63819 4.50093 6.34034 4.86062 6.34034 5.28689C6.34034 5.71317 6.63827 6.07286 7.0816 6.18195L10.077 6.91888V16.1363H3.52835C2.13423 16.1363 1.00003 17.2705 1.00003 18.6646V19.746C1.00003 20.0974 1.28481 20.3822 1.63627 20.3822C1.98772 20.3822 2.2725 20.0974 2.2725 19.746V18.6646C2.2725 17.9722 2.83587 17.4088 3.52835 17.4088H33.842V18.2894H33.8333C32.8923 18.2894 32.1267 19.055 32.1267 19.996V21.8183C32.1267 22.3834 32.5864 22.8432 33.1515 22.8432H35.8049C36.3699 22.8432 36.8297 22.3834 36.8297 21.8183V19.996C36.8297 19.055 36.0642 18.2894 35.1232 18.2894H35.1144V17.4088H38.4717C39.1642 17.4088 39.7276 17.9722 39.7276 18.6646V26.5376C39.7276 26.9212 39.4688 27.2592 39.0985 27.3594L36.2499 28.1299V26.9096C36.2499 25.5356 35.132 24.4177 33.758 24.4177H29.9735C28.5994 24.4177 27.4815 25.5356 27.4815 26.9096V30.5018L22.4928 31.8512C21.5161 32.1154 20.4839 32.1154 19.5073 31.8512L14.6034 30.5246V26.9096C14.6034 25.5356 13.4854 24.4177 12.1114 24.4177H8.32693C6.95291 24.4177 5.835 25.5356 5.835 26.9096V28.1528L2.90153 27.3593C2.53124 27.2591 2.2725 26.9212 2.2725 26.5375V22.4573C2.2725 22.1058 1.98772 21.8211 1.63627 21.8211C1.28481 21.8211 1.00003 22.1058 1.00003 22.4573V26.5375C1.00003 27.452 1.58995 28.2611 2.44844 28.5495V40.7939C2.44844 42.4097 3.76291 43.7242 5.37861 43.7242H7.19434C7.45952 44.1299 7.91702 44.399 8.43678 44.399H12.0015C12.5212 44.399 12.9787 44.1299 13.2439 43.7242H28.841C29.1061 44.1299 29.5636 44.399 30.0834 44.399H33.6481C34.168 44.399 34.6255 44.1299 34.8905 43.7242H36.6215C38.2372 43.7242 39.5516 42.4097 39.5516 40.7939V28.5494C40.4101 28.261 41 27.452 41 26.5374V18.6645C41.0001 17.2704 39.8659 16.1362 38.4718 16.1362ZM35.5573 19.9959V21.5706H33.3992V19.9959C33.3992 19.7566 33.594 19.5618 33.8334 19.5618H35.1232C35.3626 19.5618 35.5573 19.7566 35.5573 19.9959ZM20.7393 9.54213C20.8247 9.56325 20.9126 9.57385 21.0003 9.57385C21.0878 9.57385 21.1752 9.56333 21.26 9.54238L24.0991 8.84388C24.4403 8.75989 24.6488 8.41522 24.5649 8.07403C24.481 7.73292 24.1364 7.52458 23.7951 7.60822L21.0002 8.29587L8.77009 5.28689L21.0002 2.27792L33.2301 5.28689L26.4498 6.95502C26.1086 7.039 25.9001 7.38367 25.984 7.72487C26.0679 8.06597 26.4127 8.27432 26.7539 8.19068L30.6508 7.23191V12.7656H11.3494V7.23191L20.7393 9.54213ZM11.3494 14.0382H30.6507V16.1362H11.3494V14.0382ZM31.9232 16.1362V6.9188L33.842 6.44671V16.1362H31.9232ZM28.754 26.9094C28.754 26.237 29.301 25.69 29.9735 25.69H33.758C34.4304 25.69 34.9774 26.237 34.9774 26.9094V31.6979C34.9774 31.8167 34.8807 31.9134 34.7619 31.9134H28.9696C28.8507 31.9134 28.754 31.8167 28.754 31.6979V26.9094ZM7.10747 26.9094C7.10747 26.237 7.65447 25.69 8.32693 25.69H12.1114C12.7839 25.69 13.3309 26.237 13.3309 26.9094V31.6979C13.3309 31.8167 13.2342 31.9134 13.1153 31.9134H12.8494H7.58889H7.32295C7.20418 31.9134 7.10747 31.8167 7.10747 31.6979V26.9094ZM3.721 40.7939V28.8991L5.83509 29.4709V31.6979C5.83509 32.3904 6.31116 32.9721 6.95274 33.1373V42.4516H5.37869C4.46455 42.4516 3.721 41.7079 3.721 40.7939ZM12.0016 43.1265H8.43687C8.32014 43.1265 8.22513 43.0315 8.22513 42.9147V33.1858H12.2132V42.9147C12.2132 43.0315 12.1183 43.1265 12.0016 43.1265ZM33.6481 43.1265H30.0834C29.9667 43.1265 29.8717 43.0315 29.8717 42.9147V37.0561C29.8717 36.7047 29.587 36.4199 29.2355 36.4199C28.8841 36.4199 28.5993 36.7047 28.5993 37.0561V42.4516H13.4857V33.1373C14.0826 32.9836 14.536 32.4694 14.5961 31.8408L19.1751 33.0795C19.7721 33.2409 20.386 33.3216 21.0001 33.3216C21.6142 33.3216 22.2281 33.2409 22.8251 33.0795L27.4876 31.8183C27.5391 32.4571 27.9953 32.9818 28.5993 33.1374V34.3448C28.5993 34.6963 28.8841 34.981 29.2355 34.981C29.587 34.981 29.8717 34.6963 29.8717 34.3448V33.1859H33.8598V42.9148C33.8598 43.0315 33.7648 43.1265 33.6481 43.1265ZM36.6215 42.4516H35.1323V33.1373C35.7739 32.9721 36.25 32.3904 36.25 31.6979V29.448L38.2792 28.8991V40.7939C38.2792 41.7079 37.5356 42.4516 36.6215 42.4516Z" fill="#555555" stroke="#555555" stroke-width="0.2"/>
</svg>
