<svg width="50" height="50" viewBox="0 0 50 50" fill="none" xmlns="http://www.w3.org/2000/svg">
<path d="M49.4792 46.026H49.0052L47.1094 40.9635C47.0721 40.8638 47.0052 40.7779 46.9177 40.7174C46.8302 40.6569 46.7262 40.6246 46.6198 40.6249H41.3437C40.1955 31.8757 40.4433 22.9996 42.0781 14.3281C42.2694 13.3099 42.253 12.2635 42.03 11.2518C41.8069 10.24 41.3818 9.28377 40.7801 8.44035C40.1785 7.59694 39.4126 6.88376 38.5286 6.34358C37.6445 5.8034 36.6604 5.44736 35.6354 5.29682C34.9006 3.7175 33.7308 2.38038 32.2632 1.44222C30.7955 0.504065 29.0908 0.00375599 27.349 -4.93165e-05H14.0208C13.9371 -0.00394087 13.8536 0.0124572 13.7775 0.0477506C13.7014 0.0830439 13.635 0.136189 13.5838 0.202665C13.5327 0.269142 13.4984 0.346985 13.4838 0.429574C13.4692 0.512163 13.4747 0.597056 13.5 0.677034C13.725 1.40608 14.1063 2.07731 14.6172 2.64399C15.1281 3.21067 15.7564 3.65918 16.4583 3.95828C15.8402 4.28057 15.2888 4.71709 14.8333 5.24474C13.7616 5.33711 12.721 5.65279 11.7785 6.17147C10.8361 6.69016 10.0126 7.40037 9.36116 8.25641C8.70968 9.11246 8.24459 10.0954 7.99581 11.142C7.74704 12.1886 7.72008 13.2756 7.91667 14.3333C9.4581 22.6197 9.75302 31.0899 8.79167 39.4635H4.40625C4.13548 39.4536 3.86553 39.4989 3.61279 39.5966C3.36005 39.6943 3.12979 39.8422 2.93599 40.0316C2.74218 40.2209 2.58887 40.4477 2.48536 40.6981C2.38184 40.9485 2.33029 41.2173 2.33382 41.4882C2.33735 41.7592 2.3959 42.0266 2.5059 42.2742C2.61591 42.5218 2.77508 42.7445 2.97376 42.9287C3.17244 43.1129 3.40648 43.2549 3.66168 43.3459C3.91687 43.4369 4.18791 43.4752 4.45833 43.4583C4.45833 44.4218 4.39062 45.1614 5.09896 46.026H0.520833C0.3827 46.026 0.250224 46.0809 0.152549 46.1785C0.0548734 46.2762 0 46.4087 0 46.5468V49.4791C0 49.6172 0.0548734 49.7497 0.152549 49.8474C0.250224 49.9451 0.3827 49.9999 0.520833 49.9999H49.4792C49.6173 49.9999 49.7498 49.9451 49.8474 49.8474C49.9451 49.7497 50 49.6172 50 49.4791V46.5468C50 46.4087 49.9451 46.2762 49.8474 46.1785C49.7498 46.0809 49.6173 46.026 49.4792 46.026ZM47.9167 46.026H38.1979L36.5625 41.6666H46.2604L47.9167 46.026ZM10.9896 44.2395C10.9896 39.7135 11.0677 39.802 10.7865 39.552C10.738 39.5107 10.6811 39.4805 10.6198 39.4635H10.5521L11.2917 37.2031C11.5296 36.4763 11.9573 35.8262 12.5304 35.3199C13.1036 34.8135 13.8015 34.4694 14.5521 34.3229L17.9948 33.651L17.7552 37.6302C17.7509 37.7011 17.7613 37.7722 17.7855 37.8391C17.8098 37.9059 17.8475 37.9671 17.8962 38.0188C17.945 38.0705 18.0039 38.1117 18.0692 38.1398C18.1346 38.1679 18.2049 38.1824 18.276 38.1822H19.6146L18.0521 40.0781C18.0074 40.1342 17.9748 40.1989 17.9563 40.2682C17.9378 40.3374 17.9338 40.4098 17.9445 40.4807C17.9553 40.5516 17.9806 40.6195 18.0188 40.6802C18.057 40.7408 18.1074 40.793 18.1667 40.8333C23.4375 44.427 24.6094 45.2499 24.7187 45.3124C24.7911 45.3583 24.8736 45.3856 24.959 45.392C25.0444 45.3983 25.13 45.3835 25.2083 45.3489C25.3073 45.302 24.8542 45.6041 31.8281 40.8281C31.9388 40.7468 32.0129 40.6252 32.0343 40.4897C32.0558 40.3541 32.0229 40.2155 31.9427 40.1041L30.3802 38.2083H31.724C31.7951 38.2084 31.8654 38.194 31.9308 38.1659C31.9961 38.1378 32.0549 38.0966 32.1037 38.0448C32.1525 37.9931 32.1902 37.932 32.2145 37.8651C32.2387 37.7983 32.2491 37.7272 32.2448 37.6562L32.0052 33.677L35.4531 34.3489C36.2037 34.4954 36.9016 34.8396 37.4748 35.3459C38.0479 35.8522 38.4756 36.5023 38.7135 37.2291L39.849 40.6249C35.4167 40.6249 35.776 40.6249 35.6823 40.6249C35.6057 40.6504 35.5354 40.6919 35.4761 40.7467C35.4169 40.8015 35.37 40.8683 35.3385 40.9427L33.4427 46.0052H10.3281C10.7358 45.5064 10.9618 44.8837 10.9687 44.2395H10.9896ZM12.4896 18.5989C12.4909 18.396 12.5326 18.1955 12.6121 18.0088C12.6916 17.8222 12.8074 17.6532 12.9528 17.5117C13.0981 17.3702 13.2702 17.259 13.4589 17.1846C13.6476 17.1101 13.8493 17.0739 14.0521 17.0781H14.8542V20.2031H13.9896C13.7829 20.2026 13.5784 20.1602 13.3886 20.0784C13.1988 19.9965 13.0276 19.877 12.8853 19.727C12.7431 19.5769 12.6329 19.3996 12.5612 19.2057C12.4896 19.0118 12.4582 18.8053 12.4687 18.5989H12.4896ZM36 17.0781C36.4144 17.0739 36.8135 17.2346 37.1094 17.5247C37.4054 17.8148 37.574 18.2105 37.5781 18.6249C37.5823 19.0393 37.4216 19.4384 37.1315 19.7344C36.8414 20.0303 36.4456 20.1989 36.0312 20.2031H35.1615C35.1615 19.9062 35.1615 19.802 35.1615 17.0781H36ZM28.8958 37.9895L30.776 40.2968L26.5625 43.1822C27.5169 41.3815 28.2047 39.4516 28.6042 37.4531C28.8786 36.0155 29.0526 34.5606 29.125 33.0989L30.9687 33.4583L31.1927 37.1562H29.3073C29.211 37.1572 29.1169 37.1848 29.0353 37.236C28.9538 37.2873 28.8881 37.3601 28.8455 37.4464C28.8028 37.5328 28.785 37.6292 28.7939 37.7251C28.8028 37.821 28.8381 37.9125 28.8958 37.9895ZM23.4375 43.1874L19.2187 40.2968L21.099 37.9895C21.1626 37.9131 21.2031 37.82 21.2155 37.7213C21.228 37.6225 21.2119 37.5223 21.1691 37.4325C21.1264 37.3426 21.0588 37.2669 20.9744 37.2142C20.8899 37.1616 20.7922 37.1342 20.6927 37.1354H18.8073L19.0312 33.4374L20.8802 33.0781L21.0312 34.8958C21.2604 37.7947 22.0792 40.6162 23.4375 43.1874ZM26.5625 40.7083L26.2656 39.6666L26.8646 39.0624L27.0625 39.2499C26.9132 39.7465 26.7465 40.2326 26.5625 40.7083ZM24.1042 42.1874L24.8385 39.677C24.8655 39.5861 24.8672 39.4896 24.8433 39.3978C24.8194 39.306 24.771 39.2225 24.7031 39.1562L23.901 38.3489L25.0052 37.3072L26.1094 38.3489L25.2969 39.1666C25.229 39.2329 25.1805 39.3164 25.1567 39.4082C25.1328 39.5 25.1345 39.5965 25.1615 39.6874L25.8958 42.1874C25.5625 42.8541 25.3229 43.2656 25 43.8333C24.6458 43.2291 24.4323 42.8437 24.1042 42.1874ZM22.9427 39.2812L23.151 39.0833L23.75 39.6822L23.4479 40.7239C23.2604 40.2291 23.0885 39.7499 22.9427 39.276V39.2812ZM27.3802 38.1249L25.724 36.5624L28 33.9999C27.9198 35.3893 27.7123 36.7683 27.3802 38.1197V38.1249ZM22.625 38.1249C22.2822 36.7596 22.0728 35.3641 22 33.9583C22.474 34.4791 22.0833 34.0468 24.2812 36.526L22.625 38.1249ZM21.4844 28.1249C19.8228 27.4285 18.4035 26.2576 17.4039 24.7587C16.4044 23.2598 15.8689 21.4995 15.8646 19.6979V16.7395L17.5469 14.5833C18.0779 13.898 18.382 13.0641 18.4167 12.1979L18.5208 9.36974C18.5244 9.27415 18.5478 9.18035 18.5897 9.09435C18.6315 9.00834 18.6909 8.93201 18.7639 8.87024C18.837 8.80848 18.9221 8.76263 19.0139 8.73564C19.1056 8.70865 19.202 8.70111 19.2969 8.71349C22.5137 9.12071 25.7649 9.18182 28.9948 8.89578C30.7604 8.74474 30.8958 8.58328 31.2396 8.86974C31.3119 8.93088 31.3706 9.0065 31.4118 9.09173C31.4531 9.17695 31.476 9.26989 31.4792 9.36453L31.5833 12.1979C31.6174 13.0651 31.9236 13.8997 32.4583 14.5833L34.1354 16.7187C34.1354 19.2552 34.3333 21.0468 33.4219 23.2083C32.4895 25.4421 30.7086 27.2146 28.4704 28.1365C26.2322 29.0584 23.7195 29.0542 21.4844 28.1249ZM28.125 29.3749V32.2916L25 35.8124L21.875 32.2916V29.3749C23.9054 30.0391 26.0946 30.0391 28.125 29.3749ZM35.8125 42.6301L37.0885 46.026H34.5417L35.8125 42.6301ZM36.0885 6.43745C37.7451 6.84138 39.1834 7.8656 40.1069 9.29888C41.0305 10.7322 41.3688 12.4652 41.0521 14.1406C39.616 21.8837 39.2498 29.7874 39.9635 37.6302L39.7187 36.8854C39.419 35.9871 38.8858 35.1848 38.1738 34.5606C37.4617 33.9364 36.5964 33.5128 35.6667 33.3333L29.1667 32.0364V28.9843C30.7184 28.2883 32.0707 27.2141 33.0998 25.8602C34.129 24.5062 34.802 22.9157 35.0573 21.2343H36.0104C36.5453 21.222 37.0634 21.0453 37.4943 20.7282C37.9252 20.411 38.248 19.9689 38.4187 19.4618C38.5894 18.9548 38.5998 18.4074 38.4485 17.8943C38.2972 17.3811 37.9914 16.927 37.5729 16.5937C37.2553 16.3413 36.8851 16.1633 36.4896 16.0729C36.5 8.91662 36.6198 8.14578 36.0885 6.43745ZM18.9635 4.39058C19.1017 4.39058 19.2341 4.3357 19.3318 4.23803C19.4295 4.14035 19.4844 4.00788 19.4844 3.86974C19.4844 3.73161 19.4295 3.59913 19.3318 3.50146C19.2341 3.40378 19.1017 3.34891 18.9635 3.34891H18.5573C17.7771 3.35277 17.0113 3.13886 16.3461 2.73124C15.6808 2.32363 15.1425 1.73848 14.7917 1.04162H27.349C29.4988 1.04437 31.5599 1.89964 33.0801 3.41984C34.6003 4.94005 35.4556 7.0011 35.4583 9.15099V16.0364H34.8958L33.2656 13.9531C32.8683 13.4397 32.6408 12.8153 32.6146 12.1666C32.5 9.10932 32.5521 9.08328 32.3385 8.64578C32.1798 8.32165 31.9239 8.05511 31.6064 7.88333C31.289 7.71155 30.9259 7.64307 30.5677 7.68745C26.7951 8.17362 22.9757 8.17362 19.2031 7.68745C18.7525 7.68868 18.3202 7.86573 17.9983 8.18091C17.6763 8.49609 17.49 8.92451 17.4792 9.37495L17.375 12.2083C17.3467 12.8533 17.1192 13.4738 16.724 13.9843L15.0885 16.0677H14.5677C14.5677 8.10412 14.5677 8.73432 14.599 8.32287C14.7199 7.24715 15.2308 6.25303 16.035 5.52846C16.8392 4.80388 17.8811 4.39908 18.9635 4.39058ZM8.94271 14.1406C8.62769 12.4393 8.98539 10.6821 9.94044 9.23931C10.8955 7.79653 12.3733 6.78082 14.0625 6.4062C13.8042 6.94446 13.6286 7.51864 13.5417 8.10932C13.4687 8.63016 13.4896 8.18224 13.4896 16.0833C13.4472 16.093 13.4055 16.1052 13.3646 16.1197C13.034 16.199 12.7236 16.3462 12.4531 16.552C12.0183 16.8781 11.6963 17.332 11.5324 17.8502C11.3685 18.3684 11.3708 18.9249 11.539 19.4418C11.7073 19.9586 12.033 20.4098 12.4706 20.7322C12.9082 21.0546 13.4357 21.232 13.9792 21.2395H14.9271C15.1851 22.9208 15.861 24.5105 16.893 25.8627C17.9249 27.2149 19.2797 28.2865 20.8333 28.9791V32.0364L14.3333 33.3333C13.4006 33.5151 12.5333 33.9425 11.8209 34.5715C11.1086 35.2006 10.5771 36.0083 10.2812 36.9114L10.0312 37.6822C10.7471 29.8222 10.3808 21.901 8.94271 14.1406ZM4.40625 42.4166C4.27498 42.422 4.144 42.4004 4.02145 42.3531C3.89889 42.3057 3.78737 42.2337 3.69382 42.1415C3.60028 42.0492 3.52669 41.9387 3.47765 41.8169C3.4286 41.695 3.40514 41.5643 3.40871 41.433C3.41229 41.3017 3.44284 41.1725 3.49845 41.0534C3.55406 40.9344 3.63355 40.8281 3.73198 40.7411C3.83042 40.6541 3.94569 40.5882 4.07064 40.5476C4.19559 40.507 4.32756 40.4926 4.45833 40.5051V42.4166H4.40625ZM5.5 44.2395V40.5051H9.92708V44.2395C9.9257 44.7138 9.73633 45.1682 9.40048 45.5031C9.06462 45.8379 8.60969 46.026 8.13542 46.026H7.29167C6.81739 46.026 6.36246 45.8379 6.0266 45.5031C5.69075 45.1682 5.50138 44.7138 5.5 44.2395ZM48.9583 48.9583H1.04167V47.0677H48.9583V48.9583Z" fill="#555555"/>
<path d="M40.0417 43.3281C39.9035 43.3281 39.771 43.3829 39.6734 43.4806C39.5757 43.5783 39.5208 43.7108 39.5208 43.8489C39.5208 43.987 39.5757 44.1195 39.6734 44.2172C39.771 44.3149 39.9035 44.3697 40.0417 44.3697H44.6875C44.8256 44.3697 44.9581 44.3149 45.0558 44.2172C45.1534 44.1195 45.2083 43.987 45.2083 43.8489C45.2083 43.7108 45.1534 43.5783 45.0558 43.4806C44.9581 43.3829 44.8256 43.3281 44.6875 43.3281H40.0417Z" fill="#555555"/>
<path d="M28.8542 16.0624C28.716 16.0624 28.5835 16.1173 28.4859 16.215C28.3882 16.3127 28.3333 16.4451 28.3333 16.5833V17.0156C28.3333 17.1537 28.3882 17.2862 28.4859 17.3839C28.5835 17.4815 28.716 17.5364 28.8542 17.5364C28.9923 17.5364 29.1248 17.4815 29.2224 17.3839C29.3201 17.2862 29.375 17.1537 29.375 17.0156V16.5833C29.375 16.4451 29.3201 16.3127 29.2224 16.215C29.1248 16.1173 28.9923 16.0624 28.8542 16.0624Z" fill="#555555"/>
<path d="M27.8698 15.2083H29.8385C29.9767 15.2083 30.1091 15.1534 30.2068 15.0557C30.3045 14.9581 30.3594 14.8256 30.3594 14.6875C30.3594 14.5493 30.3045 14.4168 30.2068 14.3192C30.1091 14.2215 29.9767 14.1666 29.8385 14.1666H27.8698C27.7316 14.1666 27.5992 14.2215 27.5015 14.3192C27.4038 14.4168 27.3489 14.5493 27.3489 14.6875C27.3489 14.8256 27.4038 14.9581 27.5015 15.0557C27.5992 15.1534 27.7316 15.2083 27.8698 15.2083Z" fill="#555555"/>
<path d="M21.1458 16.0624C21.0077 16.0624 20.8752 16.1173 20.7775 16.215C20.6799 16.3127 20.625 16.4451 20.625 16.5833V17.0156C20.625 17.1537 20.6799 17.2862 20.7775 17.3839C20.8752 17.4815 21.0077 17.5364 21.1458 17.5364C21.284 17.5364 21.4164 17.4815 21.5141 17.3839C21.6118 17.2862 21.6667 17.1537 21.6667 17.0156V16.5833C21.6667 16.4451 21.6118 16.3127 21.5141 16.215C21.4164 16.1173 21.284 16.0624 21.1458 16.0624Z" fill="#555555"/>
<path d="M22.1302 14.1666H20.1615C20.0233 14.1666 19.8908 14.2215 19.7932 14.3192C19.6955 14.4168 19.6406 14.5493 19.6406 14.6875C19.6406 14.8256 19.6955 14.9581 19.7932 15.0557C19.8908 15.1534 20.0233 15.2083 20.1615 15.2083H22.1302C22.2683 15.2083 22.4008 15.1534 22.4985 15.0557C22.5962 14.9581 22.651 14.8256 22.651 14.6875C22.651 14.5493 22.5962 14.4168 22.4985 14.3192C22.4008 14.2215 22.2683 14.1666 22.1302 14.1666Z" fill="#555555"/>
<path d="M27.3958 23.9166C27.4348 23.8595 27.462 23.7952 27.4759 23.7275C27.4898 23.6598 27.4901 23.59 27.4767 23.5222C27.4633 23.4544 27.4366 23.3899 27.398 23.3325C27.3595 23.2751 27.3099 23.226 27.2522 23.188C27.1945 23.15 27.1297 23.1238 27.0618 23.1111C26.9939 23.0983 26.9241 23.0992 26.8565 23.1137C26.7889 23.1282 26.7249 23.156 26.6681 23.1955C26.6114 23.235 26.5631 23.2853 26.526 23.3437C26.3591 23.594 26.1329 23.7992 25.8676 23.9412C25.6023 24.0831 25.3061 24.1574 25.0052 24.1574C24.7043 24.1574 24.4081 24.0831 24.1428 23.9412C23.8775 23.7992 23.6513 23.594 23.4844 23.3437C23.4029 23.229 23.2792 23.1515 23.1405 23.128C23.0018 23.1046 22.8594 23.1372 22.7448 23.2187C22.6301 23.3002 22.5526 23.4239 22.5291 23.5626C22.5057 23.7013 22.5383 23.8436 22.6198 23.9583C22.8853 24.3492 23.2432 24.6685 23.6617 24.8879C24.0802 25.1073 24.5464 25.2199 25.019 25.2158C25.4915 25.2116 25.9557 25.0909 26.3703 24.8643C26.785 24.6376 27.1372 24.3121 27.3958 23.9166Z" fill="#555555"/>
<path d="M49.4792 46.026H49.0052L47.1094 40.9635C47.0721 40.8638 47.0052 40.7779 46.9177 40.7174C46.8302 40.6569 46.7262 40.6246 46.6198 40.6249H41.3437C40.1955 31.8757 40.4433 22.9996 42.0781 14.3281C42.2694 13.3099 42.253 12.2635 42.03 11.2518C41.8069 10.24 41.3818 9.28377 40.7801 8.44035C40.1785 7.59694 39.4126 6.88376 38.5286 6.34358C37.6445 5.8034 36.6604 5.44736 35.6354 5.29682C34.9006 3.7175 33.7308 2.38038 32.2632 1.44222C30.7955 0.504065 29.0908 0.00375599 27.349 -4.93165e-05H14.0208C13.9371 -0.00394087 13.8536 0.0124572 13.7775 0.0477506C13.7014 0.0830439 13.635 0.136189 13.5838 0.202665C13.5327 0.269142 13.4984 0.346985 13.4838 0.429574C13.4692 0.512163 13.4747 0.597056 13.5 0.677034C13.725 1.40608 14.1063 2.07731 14.6172 2.64399C15.1281 3.21067 15.7564 3.65918 16.4583 3.95828C15.8402 4.28057 15.2888 4.71709 14.8333 5.24474C13.7616 5.33711 12.721 5.65279 11.7785 6.17147C10.8361 6.69016 10.0126 7.40037 9.36116 8.25641C8.70968 9.11246 8.24459 10.0954 7.99581 11.142C7.74704 12.1886 7.72008 13.2756 7.91667 14.3333C9.4581 22.6197 9.75302 31.0899 8.79167 39.4635H4.40625C4.13548 39.4536 3.86553 39.4989 3.61279 39.5966C3.36005 39.6943 3.12979 39.8422 2.93599 40.0316C2.74218 40.2209 2.58887 40.4477 2.48536 40.6981C2.38184 40.9485 2.33029 41.2173 2.33382 41.4882C2.33735 41.7592 2.3959 42.0266 2.5059 42.2742C2.61591 42.5218 2.77508 42.7445 2.97376 42.9287C3.17244 43.1129 3.40648 43.2549 3.66168 43.3459C3.91687 43.4369 4.18791 43.4752 4.45833 43.4583C4.45833 44.4218 4.39062 45.1614 5.09896 46.026H0.520833C0.3827 46.026 0.250224 46.0809 0.152549 46.1785C0.0548734 46.2762 0 46.4087 0 46.5468V49.4791C0 49.6172 0.0548734 49.7497 0.152549 49.8474C0.250224 49.9451 0.3827 49.9999 0.520833 49.9999H49.4792C49.6173 49.9999 49.7498 49.9451 49.8474 49.8474C49.9451 49.7497 50 49.6172 50 49.4791V46.5468C50 46.4087 49.9451 46.2762 49.8474 46.1785C49.7498 46.0809 49.6173 46.026 49.4792 46.026ZM47.9167 46.026H38.1979L36.5625 41.6666H46.2604L47.9167 46.026ZM10.9896 44.2395C10.9896 39.7135 11.0677 39.802 10.7865 39.552C10.738 39.5107 10.6811 39.4805 10.6198 39.4635H10.5521L11.2917 37.2031C11.5296 36.4763 11.9573 35.8262 12.5304 35.3199C13.1036 34.8135 13.8015 34.4694 14.5521 34.3229L17.9948 33.651L17.7552 37.6302C17.7509 37.7011 17.7613 37.7722 17.7855 37.8391C17.8098 37.9059 17.8475 37.9671 17.8962 38.0188C17.945 38.0705 18.0039 38.1117 18.0692 38.1398C18.1346 38.1679 18.2049 38.1824 18.276 38.1822H19.6146L18.0521 40.0781C18.0074 40.1342 17.9748 40.1989 17.9563 40.2682C17.9378 40.3374 17.9338 40.4098 17.9445 40.4807C17.9553 40.5516 17.9806 40.6195 18.0188 40.6802C18.057 40.7408 18.1074 40.793 18.1667 40.8333C23.4375 44.427 24.6094 45.2499 24.7187 45.3124C24.7911 45.3583 24.8736 45.3856 24.959 45.392C25.0444 45.3983 25.13 45.3835 25.2083 45.3489C25.3073 45.302 24.8542 45.6041 31.8281 40.8281C31.9388 40.7468 32.0129 40.6252 32.0343 40.4897C32.0558 40.3541 32.0229 40.2155 31.9427 40.1041L30.3802 38.2083H31.724C31.7951 38.2084 31.8654 38.194 31.9308 38.1659C31.9961 38.1378 32.0549 38.0966 32.1037 38.0448C32.1525 37.9931 32.1902 37.932 32.2145 37.8651C32.2387 37.7983 32.2491 37.7272 32.2448 37.6562L32.0052 33.677L35.4531 34.3489C36.2037 34.4954 36.9016 34.8396 37.4748 35.3459C38.0479 35.8522 38.4756 36.5023 38.7135 37.2291L39.849 40.6249C35.4167 40.6249 35.776 40.6249 35.6823 40.6249C35.6057 40.6504 35.5354 40.6919 35.4761 40.7467C35.4169 40.8015 35.37 40.8683 35.3385 40.9427L33.4427 46.0052H10.3281C10.7358 45.5064 10.9618 44.8837 10.9687 44.2395H10.9896ZM12.4896 18.5989C12.4909 18.396 12.5326 18.1955 12.6121 18.0088C12.6916 17.8222 12.8074 17.6532 12.9528 17.5117C13.0981 17.3702 13.2702 17.259 13.4589 17.1846C13.6476 17.1101 13.8493 17.0739 14.0521 17.0781H14.8542V20.2031H13.9896C13.7829 20.2026 13.5784 20.1602 13.3886 20.0784C13.1988 19.9965 13.0276 19.877 12.8853 19.727C12.7431 19.5769 12.6329 19.3996 12.5612 19.2057C12.4896 19.0118 12.4582 18.8053 12.4687 18.5989H12.4896ZM36 17.0781C36.4144 17.0739 36.8135 17.2346 37.1094 17.5247C37.4054 17.8148 37.574 18.2105 37.5781 18.6249C37.5823 19.0393 37.4216 19.4384 37.1315 19.7344C36.8414 20.0303 36.4456 20.1989 36.0312 20.2031H35.1615C35.1615 19.9062 35.1615 19.802 35.1615 17.0781H36ZM28.8958 37.9895L30.776 40.2968L26.5625 43.1822C27.5169 41.3815 28.2047 39.4516 28.6042 37.4531C28.8786 36.0155 29.0526 34.5606 29.125 33.0989L30.9687 33.4583L31.1927 37.1562H29.3073C29.211 37.1572 29.1169 37.1848 29.0353 37.236C28.9538 37.2873 28.8881 37.3601 28.8455 37.4464C28.8028 37.5328 28.785 37.6292 28.7939 37.7251C28.8028 37.821 28.8381 37.9125 28.8958 37.9895ZM23.4375 43.1874L19.2187 40.2968L21.099 37.9895C21.1626 37.9131 21.2031 37.82 21.2155 37.7213C21.228 37.6225 21.2119 37.5223 21.1691 37.4325C21.1264 37.3426 21.0588 37.2669 20.9744 37.2142C20.8899 37.1616 20.7922 37.1342 20.6927 37.1354H18.8073L19.0312 33.4374L20.8802 33.0781L21.0312 34.8958C21.2604 37.7947 22.0792 40.6162 23.4375 43.1874ZM26.5625 40.7083L26.2656 39.6666L26.8646 39.0624L27.0625 39.2499C26.9132 39.7465 26.7465 40.2326 26.5625 40.7083ZM24.1042 42.1874L24.8385 39.677C24.8655 39.5861 24.8672 39.4896 24.8433 39.3978C24.8194 39.306 24.771 39.2225 24.7031 39.1562L23.901 38.3489L25.0052 37.3072L26.1094 38.3489L25.2969 39.1666C25.229 39.2329 25.1805 39.3164 25.1567 39.4082C25.1328 39.5 25.1345 39.5965 25.1615 39.6874L25.8958 42.1874C25.5625 42.8541 25.3229 43.2656 25 43.8333C24.6458 43.2291 24.4323 42.8437 24.1042 42.1874ZM22.9427 39.2812L23.151 39.0833L23.75 39.6822L23.4479 40.7239C23.2604 40.2291 23.0885 39.7499 22.9427 39.276V39.2812ZM27.3802 38.1249L25.724 36.5624L28 33.9999C27.9198 35.3893 27.7123 36.7683 27.3802 38.1197V38.1249ZM22.625 38.1249C22.2822 36.7596 22.0728 35.3641 22 33.9583C22.474 34.4791 22.0833 34.0468 24.2812 36.526L22.625 38.1249ZM21.4844 28.1249C19.8228 27.4285 18.4035 26.2576 17.4039 24.7587C16.4044 23.2598 15.8689 21.4995 15.8646 19.6979V16.7395L17.5469 14.5833C18.0779 13.898 18.382 13.0641 18.4167 12.1979L18.5208 9.36974C18.5244 9.27415 18.5478 9.18035 18.5897 9.09435C18.6315 9.00834 18.6909 8.93201 18.7639 8.87024C18.837 8.80848 18.9221 8.76263 19.0139 8.73564C19.1056 8.70865 19.202 8.70111 19.2969 8.71349C22.5137 9.12071 25.7649 9.18182 28.9948 8.89578C30.7604 8.74474 30.8958 8.58328 31.2396 8.86974C31.3119 8.93088 31.3706 9.0065 31.4118 9.09173C31.4531 9.17695 31.476 9.26989 31.4792 9.36453L31.5833 12.1979C31.6174 13.0651 31.9236 13.8997 32.4583 14.5833L34.1354 16.7187C34.1354 19.2552 34.3333 21.0468 33.4219 23.2083C32.4895 25.4421 30.7086 27.2146 28.4704 28.1365C26.2322 29.0584 23.7195 29.0542 21.4844 28.1249ZM28.125 29.3749V32.2916L25 35.8124L21.875 32.2916V29.3749C23.9054 30.0391 26.0946 30.0391 28.125 29.3749ZM35.8125 42.6301L37.0885 46.026H34.5417L35.8125 42.6301ZM36.0885 6.43745C37.7451 6.84138 39.1834 7.8656 40.1069 9.29888C41.0305 10.7322 41.3688 12.4652 41.0521 14.1406C39.616 21.8837 39.2498 29.7874 39.9635 37.6302L39.7187 36.8854C39.419 35.9871 38.8858 35.1848 38.1738 34.5606C37.4617 33.9364 36.5964 33.5128 35.6667 33.3333L29.1667 32.0364V28.9843C30.7184 28.2883 32.0707 27.2141 33.0998 25.8602C34.129 24.5062 34.802 22.9157 35.0573 21.2343H36.0104C36.5453 21.222 37.0634 21.0453 37.4943 20.7282C37.9252 20.411 38.248 19.9689 38.4187 19.4618C38.5894 18.9548 38.5998 18.4074 38.4485 17.8943C38.2972 17.3811 37.9914 16.927 37.5729 16.5937C37.2553 16.3413 36.8851 16.1633 36.4896 16.0729C36.5 8.91662 36.6198 8.14578 36.0885 6.43745ZM18.9635 4.39058C19.1017 4.39058 19.2341 4.3357 19.3318 4.23803C19.4295 4.14035 19.4844 4.00788 19.4844 3.86974C19.4844 3.73161 19.4295 3.59913 19.3318 3.50146C19.2341 3.40378 19.1017 3.34891 18.9635 3.34891H18.5573C17.7771 3.35277 17.0113 3.13886 16.3461 2.73124C15.6808 2.32363 15.1425 1.73848 14.7917 1.04162H27.349C29.4988 1.04437 31.5599 1.89964 33.0801 3.41984C34.6003 4.94005 35.4556 7.0011 35.4583 9.15099V16.0364H34.8958L33.2656 13.9531C32.8683 13.4397 32.6408 12.8153 32.6146 12.1666C32.5 9.10932 32.5521 9.08328 32.3385 8.64578C32.1798 8.32165 31.9239 8.05511 31.6064 7.88333C31.289 7.71155 30.9259 7.64307 30.5677 7.68745C26.7951 8.17362 22.9757 8.17362 19.2031 7.68745C18.7525 7.68868 18.3202 7.86573 17.9983 8.18091C17.6763 8.49609 17.49 8.92451 17.4792 9.37495L17.375 12.2083C17.3467 12.8533 17.1192 13.4738 16.724 13.9843L15.0885 16.0677H14.5677C14.5677 8.10412 14.5677 8.73432 14.599 8.32287C14.7199 7.24715 15.2308 6.25303 16.035 5.52846C16.8392 4.80388 17.8811 4.39908 18.9635 4.39058ZM8.94271 14.1406C8.62769 12.4393 8.98539 10.6821 9.94044 9.23931C10.8955 7.79653 12.3733 6.78082 14.0625 6.4062C13.8042 6.94446 13.6286 7.51864 13.5417 8.10932C13.4687 8.63016 13.4896 8.18224 13.4896 16.0833C13.4472 16.093 13.4055 16.1052 13.3646 16.1197C13.034 16.199 12.7236 16.3462 12.4531 16.552C12.0183 16.8781 11.6963 17.332 11.5324 17.8502C11.3685 18.3684 11.3708 18.9249 11.539 19.4418C11.7073 19.9586 12.033 20.4098 12.4706 20.7322C12.9082 21.0546 13.4357 21.232 13.9792 21.2395H14.9271C15.1851 22.9208 15.861 24.5105 16.893 25.8627C17.9249 27.2149 19.2797 28.2865 20.8333 28.9791V32.0364L14.3333 33.3333C13.4006 33.5151 12.5333 33.9425 11.8209 34.5715C11.1086 35.2006 10.5771 36.0083 10.2812 36.9114L10.0312 37.6822C10.7471 29.8222 10.3808 21.901 8.94271 14.1406ZM4.40625 42.4166C4.27498 42.422 4.144 42.4004 4.02145 42.3531C3.89889 42.3057 3.78737 42.2337 3.69382 42.1415C3.60028 42.0492 3.52669 41.9387 3.47765 41.8169C3.4286 41.695 3.40514 41.5643 3.40871 41.433C3.41229 41.3017 3.44284 41.1725 3.49845 41.0534C3.55406 40.9344 3.63355 40.8281 3.73198 40.7411C3.83042 40.6541 3.94569 40.5882 4.07064 40.5476C4.19559 40.507 4.32756 40.4926 4.45833 40.5051V42.4166H4.40625ZM5.5 44.2395V40.5051H9.92708V44.2395C9.9257 44.7138 9.73633 45.1682 9.40048 45.5031C9.06462 45.8379 8.60969 46.026 8.13542 46.026H7.29167C6.81739 46.026 6.36246 45.8379 6.0266 45.5031C5.69075 45.1682 5.50138 44.7138 5.5 44.2395ZM48.9583 48.9583H1.04167V47.0677H48.9583V48.9583Z" stroke="#555555" stroke-width="0.4"/>
<path d="M40.0417 43.3281C39.9035 43.3281 39.771 43.3829 39.6734 43.4806C39.5757 43.5783 39.5208 43.7108 39.5208 43.8489C39.5208 43.987 39.5757 44.1195 39.6734 44.2172C39.771 44.3149 39.9035 44.3697 40.0417 44.3697H44.6875C44.8256 44.3697 44.9581 44.3149 45.0558 44.2172C45.1534 44.1195 45.2083 43.987 45.2083 43.8489C45.2083 43.7108 45.1534 43.5783 45.0558 43.4806C44.9581 43.3829 44.8256 43.3281 44.6875 43.3281H40.0417Z" stroke="#555555" stroke-width="0.4"/>
<path d="M28.8542 16.0624C28.716 16.0624 28.5835 16.1173 28.4859 16.215C28.3882 16.3127 28.3333 16.4451 28.3333 16.5833V17.0156C28.3333 17.1537 28.3882 17.2862 28.4859 17.3839C28.5835 17.4815 28.716 17.5364 28.8542 17.5364C28.9923 17.5364 29.1248 17.4815 29.2224 17.3839C29.3201 17.2862 29.375 17.1537 29.375 17.0156V16.5833C29.375 16.4451 29.3201 16.3127 29.2224 16.215C29.1248 16.1173 28.9923 16.0624 28.8542 16.0624Z" stroke="#555555" stroke-width="0.4"/>
<path d="M27.8698 15.2083H29.8385C29.9767 15.2083 30.1091 15.1534 30.2068 15.0557C30.3045 14.9581 30.3594 14.8256 30.3594 14.6875C30.3594 14.5493 30.3045 14.4168 30.2068 14.3192C30.1091 14.2215 29.9767 14.1666 29.8385 14.1666H27.8698C27.7316 14.1666 27.5992 14.2215 27.5015 14.3192C27.4038 14.4168 27.3489 14.5493 27.3489 14.6875C27.3489 14.8256 27.4038 14.9581 27.5015 15.0557C27.5992 15.1534 27.7316 15.2083 27.8698 15.2083Z" stroke="#555555" stroke-width="0.4"/>
<path d="M21.1458 16.0624C21.0077 16.0624 20.8752 16.1173 20.7775 16.215C20.6799 16.3127 20.625 16.4451 20.625 16.5833V17.0156C20.625 17.1537 20.6799 17.2862 20.7775 17.3839C20.8752 17.4815 21.0077 17.5364 21.1458 17.5364C21.284 17.5364 21.4164 17.4815 21.5141 17.3839C21.6118 17.2862 21.6667 17.1537 21.6667 17.0156V16.5833C21.6667 16.4451 21.6118 16.3127 21.5141 16.215C21.4164 16.1173 21.284 16.0624 21.1458 16.0624Z" stroke="#555555" stroke-width="0.4"/>
<path d="M22.1302 14.1666H20.1615C20.0233 14.1666 19.8908 14.2215 19.7932 14.3192C19.6955 14.4168 19.6406 14.5493 19.6406 14.6875C19.6406 14.8256 19.6955 14.9581 19.7932 15.0557C19.8908 15.1534 20.0233 15.2083 20.1615 15.2083H22.1302C22.2683 15.2083 22.4008 15.1534 22.4985 15.0557C22.5962 14.9581 22.651 14.8256 22.651 14.6875C22.651 14.5493 22.5962 14.4168 22.4985 14.3192C22.4008 14.2215 22.2683 14.1666 22.1302 14.1666Z" stroke="#555555" stroke-width="0.4"/>
<path d="M27.3958 23.9166C27.4348 23.8595 27.462 23.7952 27.4759 23.7275C27.4898 23.6598 27.4901 23.59 27.4767 23.5222C27.4633 23.4544 27.4366 23.3899 27.398 23.3325C27.3595 23.2751 27.3099 23.226 27.2522 23.188C27.1945 23.15 27.1297 23.1238 27.0618 23.1111C26.9939 23.0983 26.9241 23.0992 26.8565 23.1137C26.7889 23.1282 26.7249 23.156 26.6681 23.1955C26.6114 23.235 26.5631 23.2853 26.526 23.3437C26.3591 23.594 26.1329 23.7992 25.8676 23.9412C25.6023 24.0831 25.3061 24.1574 25.0052 24.1574C24.7043 24.1574 24.4081 24.0831 24.1428 23.9412C23.8775 23.7992 23.6513 23.594 23.4844 23.3437C23.4029 23.229 23.2792 23.1515 23.1405 23.128C23.0018 23.1046 22.8594 23.1372 22.7448 23.2187C22.6301 23.3002 22.5526 23.4239 22.5291 23.5626C22.5057 23.7013 22.5383 23.8436 22.6198 23.9583C22.8853 24.3492 23.2432 24.6685 23.6617 24.8879C24.0802 25.1073 24.5464 25.2199 25.019 25.2158C25.4915 25.2116 25.9557 25.0909 26.3703 24.8643C26.785 24.6376 27.1372 24.3121 27.3958 23.9166Z" stroke="#555555" stroke-width="0.4"/>
</svg>
