<svg width="145" height="21" viewBox="0 0 145 21" fill="none" xmlns="http://www.w3.org/2000/svg">
<path fill-rule="evenodd" clip-rule="evenodd" d="M99.5059 3.92222H103.117L104.912 0.804443H101.338L99.5059 3.92222ZM20.4619 4.39H34.8738V0.883332H20.463L20.4619 4.39Z" fill="#494141"/>
<path fill-rule="evenodd" clip-rule="evenodd" d="M49.8075 0.5C52.4197 0.5 54.8948 1.48667 56.8757 3.43111L54.4553 5.76C53.1894 4.52667 51.485 3.95222 49.8075 3.95222C45.1597 3.95222 43.1509 7.40444 43.1788 10.61C43.2067 13.7878 45.0493 17.1022 49.8075 17.1022C51.485 17.1022 53.3823 16.4178 54.6483 15.1578L57.1222 17.6511C55.1424 19.5956 52.5848 20.5 49.8075 20.5C42.6568 20.5 39.6307 15.5956 39.604 10.61C39.5761 5.59556 42.8497 0.5 49.8075 0.5ZM87.7774 4.96111L93.361 14.1667L97.4032 7.50222L98.8956 4.96111H102.602L101.052 7.51667L95.1892 17.1811L93.361 20.1967L84.1201 4.96111H87.7785H87.7774ZM65.2913 0.911111V8.99333H74.752V0.911111H78.3547V20.0889H74.752V12.3356H65.2902V20.0889H61.6607V0.911111H65.2902H65.2913ZM15.8407 0.883333V4.17222H9.73619V20.0611H6.10562V4.17222H0V0.882222H15.8418L15.8407 0.883333ZM34.4877 8.80111V12.1711H24.0644V16.5H34.8725V20.0611H20.4617V8.80111H34.4877ZM121.551 0.911111V4.38889H111.348V9.62222H121V12.9644H111.349V20.06H107.718V0.911111H121.552H121.551ZM130.599 0.883333L135.495 8.80111L140.61 0.883333H144.982V1.04778L137.309 12.1433V20.0611H133.679V12.1444L126.281 1.04778V0.883333H130.599ZM98.9558 0.804444L96.8979 3.92222H83.5423L83.3059 3.52333L81.693 0.804444H98.9569H98.9558Z" fill="#0070BA"/>
</svg>
