<svg width="20" height="21" viewBox="0 0 20 21" fill="none" xmlns="http://www.w3.org/2000/svg">
<path d="M15.8147 12.4073C15.4047 11.9804 14.9101 11.7521 14.3859 11.7521C13.866 11.7521 13.3671 11.9761 12.9402 12.4031L11.6044 13.7347C11.4945 13.6755 11.3845 13.6206 11.2789 13.5656C11.1267 13.4895 10.983 13.4176 10.8604 13.3415C9.60909 12.5468 8.47195 11.5111 7.38131 10.1711C6.8529 9.50318 6.49781 8.94095 6.23995 8.37027C6.58659 8.05322 6.90786 7.72349 7.22068 7.40644C7.33904 7.28808 7.45741 7.16549 7.57577 7.04712C8.4635 6.1594 8.4635 5.00958 7.57577 4.12185L6.42172 2.9678C6.29068 2.83675 6.1554 2.70148 6.02858 2.56621C5.77495 2.30411 5.50863 2.03357 5.23386 1.77993C4.82381 1.37411 4.33345 1.15852 3.81772 1.15852C3.30199 1.15852 2.80317 1.37411 2.38044 1.77993C2.37622 1.78416 2.37622 1.78416 2.37199 1.78839L0.934714 3.23834C0.393622 3.77944 0.0850311 4.43889 0.0173946 5.20403C-0.0840601 6.4384 0.279486 7.58822 0.558486 8.34067C1.24331 10.188 2.26631 11.9 3.79235 13.7347C5.6439 15.9456 7.87168 17.6914 10.4165 18.9216C11.3888 19.3823 12.6866 19.9277 14.1365 20.0207C14.2253 20.0249 14.3183 20.0291 14.4028 20.0291C15.3793 20.0291 16.1994 19.6782 16.842 18.9807C16.8462 18.9723 16.8546 18.9681 16.8589 18.9596C17.0787 18.6933 17.3323 18.4523 17.5986 18.1945C17.7804 18.0212 17.9664 17.8394 18.1482 17.6492C18.5667 17.2137 18.7865 16.7065 18.7865 16.1865C18.7865 15.6623 18.5625 15.1593 18.1355 14.7366L15.8147 12.4073ZM17.3281 16.8586C17.3239 16.8629 17.3239 16.8586 17.3281 16.8586C17.1632 17.0362 16.9941 17.1968 16.8124 17.3744C16.5376 17.6365 16.2586 17.9112 15.9965 18.2198C15.5696 18.6764 15.0665 18.892 14.4071 18.892C14.3436 18.892 14.276 18.892 14.2126 18.8877C12.9571 18.8074 11.7904 18.3171 10.9153 17.8986C8.52268 16.7403 6.42172 15.0959 4.67586 13.0118C3.23435 11.2744 2.27053 9.66804 1.63222 7.94331C1.23908 6.89072 1.09535 6.07062 1.15876 5.29703C1.20103 4.80244 1.39126 4.39239 1.74212 4.04153L3.18363 2.60002C3.39076 2.40557 3.61058 2.29989 3.82617 2.29989C4.09249 2.29989 4.30808 2.46052 4.44336 2.5958C4.44758 2.60002 4.45181 2.60425 4.45604 2.60848C4.7139 2.84943 4.95908 3.09884 5.21695 3.36516C5.34799 3.50044 5.48327 3.63571 5.61854 3.77521L6.77259 4.92926C7.22068 5.37735 7.22068 5.79162 6.77259 6.23971C6.64999 6.36231 6.53163 6.4849 6.40904 6.60326C6.05395 6.96681 5.71577 7.30499 5.34799 7.63472C5.33954 7.64317 5.33108 7.6474 5.32686 7.65585C4.96331 8.0194 5.03095 8.37449 5.10704 8.61545C5.11127 8.62813 5.11549 8.64081 5.11972 8.65349C5.41986 9.38059 5.84258 10.0654 6.48513 10.8813L6.48936 10.8855C7.65609 12.3228 8.88623 13.443 10.2432 14.3011C10.4165 14.4111 10.594 14.4998 10.7631 14.5844C10.9153 14.6605 11.059 14.7323 11.1816 14.8084C11.1985 14.8169 11.2155 14.8296 11.2324 14.838C11.3761 14.9099 11.5114 14.9437 11.6509 14.9437C12.0017 14.9437 12.2215 14.7239 12.2934 14.652L13.7391 13.2063C13.8829 13.0625 14.1111 12.8892 14.3775 12.8892C14.6396 12.8892 14.8551 13.0541 14.9862 13.1978C14.9904 13.202 14.9904 13.2021 14.9946 13.2063L17.3239 15.5355C17.7593 15.9667 17.7593 16.4106 17.3281 16.8586Z" fill="#222222"/>
<path d="M10.8096 4.76439C11.9172 4.95039 12.9233 5.47458 13.7265 6.27776C14.5296 7.08094 15.0496 8.08704 15.2398 9.19458C15.2863 9.47359 15.5273 9.66804 15.8021 9.66804C15.8359 9.66804 15.8655 9.66381 15.8993 9.65959C16.2121 9.60886 16.4192 9.31295 16.3685 9.00013C16.1402 7.66008 15.5061 6.4384 14.5381 5.47035C13.57 4.5023 12.3484 3.86821 11.0083 3.63994C10.6955 3.58921 10.4038 3.79635 10.3489 4.10494C10.2939 4.41353 10.4968 4.71367 10.8096 4.76439Z" fill="#222222"/>
<path d="M19.9913 8.83527C19.6151 6.62862 18.5752 4.62066 16.9772 3.02275C15.3793 1.42484 13.3714 0.384928 11.1647 0.00870037C10.8561 -0.0462543 10.5645 0.16511 10.5095 0.473701C10.4588 0.78652 10.6659 1.0782 10.9787 1.13316C12.9486 1.46711 14.7452 2.40134 16.1741 3.82594C17.6029 5.25476 18.5329 7.05135 18.8668 9.02127C18.9133 9.30027 19.1543 9.49472 19.4291 9.49472C19.4629 9.49472 19.4925 9.49049 19.5263 9.48627C19.8349 9.43977 20.0463 9.14386 19.9913 8.83527Z" fill="#222222"/>
</svg>
