<svg width="21" height="21" viewBox="0 0 21 21" fill="none" xmlns="http://www.w3.org/2000/svg">
<path d="M20.7803 19.2197L15.336 13.7753C16.5296 12.3441 17.25 10.5051 17.25 8.5C17.25 3.95088 13.5491 0.25 9 0.25C4.45088 0.25 0.75 3.95088 0.75 8.5C0.75 13.0491 4.45088 16.75 9 16.75C11.0051 16.75 12.8441 16.0296 14.2753 14.836L19.7197 20.2804C19.8662 20.4269 20.0582 20.5002 20.25 20.5002C20.4418 20.5002 20.6338 20.4269 20.7803 20.2804C21.0733 19.9874 21.0733 19.5126 20.7803 19.2197ZM2.25 8.5C2.25 4.77812 5.27775 1.75 9 1.75C12.7222 1.75 15.75 4.77812 15.75 8.5C15.75 12.2219 12.7222 15.25 9 15.25C5.27775 15.25 2.25 12.2219 2.25 8.5Z" fill="#222222"/>
</svg>
